<?xml version="1.0" encoding="UTF-8" ?>
<svg version="1.1" width="75" height="69" xmlns="http://www.w3.org/2000/svg" shape-rendering="crispEdges">
<rect x="20" y="11" width="1" height="1" fill="#000000" />
<rect x="21" y="11" width="1" height="1" fill="#000000" />
<rect x="22" y="11" width="1" height="1" fill="#000000" />
<rect x="20" y="12" width="1" height="1" fill="#000000" />
<rect x="21" y="12" width="1" height="1" fill="#000000" />
<rect x="22" y="12" width="1" height="1" fill="#000000" />
<rect x="20" y="13" width="1" height="1" fill="#000000" />
<rect x="21" y="13" width="1" height="1" fill="#000000" />
<rect x="22" y="13" width="1" height="1" fill="#000000" />
<rect x="17" y="14" width="1" height="1" fill="#000000" />
<rect x="18" y="14" width="1" height="1" fill="#000000" />
<rect x="19" y="14" width="1" height="1" fill="#000000" />
<rect x="23" y="14" width="1" height="1" fill="#000000" />
<rect x="24" y="14" width="1" height="1" fill="#000000" />
<rect x="25" y="14" width="1" height="1" fill="#000000" />
<rect x="17" y="15" width="1" height="1" fill="#000000" />
<rect x="18" y="15" width="1" height="1" fill="#000000" />
<rect x="19" y="15" width="1" height="1" fill="#000000" />
<rect x="23" y="15" width="1" height="1" fill="#000000" />
<rect x="24" y="15" width="1" height="1" fill="#000000" />
<rect x="25" y="15" width="1" height="1" fill="#000000" />
<rect x="17" y="16" width="1" height="1" fill="#000000" />
<rect x="18" y="16" width="1" height="1" fill="#000000" />
<rect x="19" y="16" width="1" height="1" fill="#000000" />
<rect x="23" y="16" width="1" height="1" fill="#000000" />
<rect x="24" y="16" width="1" height="1" fill="#000000" />
<rect x="25" y="16" width="1" height="1" fill="#000000" />
<rect x="14" y="17" width="1" height="1" fill="#000000" />
<rect x="15" y="17" width="1" height="1" fill="#000000" />
<rect x="16" y="17" width="1" height="1" fill="#000000" />
<rect x="26" y="17" width="1" height="1" fill="#000000" />
<rect x="27" y="17" width="1" height="1" fill="#000000" />
<rect x="28" y="17" width="1" height="1" fill="#000000" />
<rect x="14" y="18" width="1" height="1" fill="#000000" />
<rect x="15" y="18" width="1" height="1" fill="#000000" />
<rect x="16" y="18" width="1" height="1" fill="#000000" />
<rect x="26" y="18" width="1" height="1" fill="#000000" />
<rect x="27" y="18" width="1" height="1" fill="#000000" />
<rect x="28" y="18" width="1" height="1" fill="#000000" />
<rect x="14" y="19" width="1" height="1" fill="#000000" />
<rect x="15" y="19" width="1" height="1" fill="#000000" />
<rect x="16" y="19" width="1" height="1" fill="#000000" />
<rect x="26" y="19" width="1" height="1" fill="#000000" />
<rect x="27" y="19" width="1" height="1" fill="#000000" />
<rect x="28" y="19" width="1" height="1" fill="#000000" />
<rect x="14" y="20" width="1" height="1" fill="#000000" />
<rect x="15" y="20" width="1" height="1" fill="#000000" />
<rect x="16" y="20" width="1" height="1" fill="#000000" />
<rect x="23" y="20" width="1" height="1" fill="#000000" />
<rect x="24" y="20" width="1" height="1" fill="#000000" />
<rect x="25" y="20" width="1" height="1" fill="#000000" />
<rect x="26" y="20" width="1" height="1" fill="#000000" />
<rect x="27" y="20" width="1" height="1" fill="#000000" />
<rect x="28" y="20" width="1" height="1" fill="#000000" />
<rect x="44" y="20" width="1" height="1" fill="#000000" />
<rect x="45" y="20" width="1" height="1" fill="#000000" />
<rect x="46" y="20" width="1" height="1" fill="#000000" />
<rect x="14" y="21" width="1" height="1" fill="#000000" />
<rect x="15" y="21" width="1" height="1" fill="#000000" />
<rect x="16" y="21" width="1" height="1" fill="#000000" />
<rect x="23" y="21" width="1" height="1" fill="#000000" />
<rect x="24" y="21" width="1" height="1" fill="#000000" />
<rect x="25" y="21" width="1" height="1" fill="#000000" />
<rect x="26" y="21" width="1" height="1" fill="#000000" />
<rect x="27" y="21" width="1" height="1" fill="#000000" />
<rect x="28" y="21" width="1" height="1" fill="#000000" />
<rect x="44" y="21" width="1" height="1" fill="#000000" />
<rect x="45" y="21" width="1" height="1" fill="#000000" />
<rect x="46" y="21" width="1" height="1" fill="#000000" />
<rect x="14" y="22" width="1" height="1" fill="#000000" />
<rect x="15" y="22" width="1" height="1" fill="#000000" />
<rect x="16" y="22" width="1" height="1" fill="#000000" />
<rect x="23" y="22" width="1" height="1" fill="#000000" />
<rect x="24" y="22" width="1" height="1" fill="#000000" />
<rect x="25" y="22" width="1" height="1" fill="#000000" />
<rect x="26" y="22" width="1" height="1" fill="#000000" />
<rect x="27" y="22" width="1" height="1" fill="#000000" />
<rect x="28" y="22" width="1" height="1" fill="#000000" />
<rect x="44" y="22" width="1" height="1" fill="#000000" />
<rect x="45" y="22" width="1" height="1" fill="#000000" />
<rect x="46" y="22" width="1" height="1" fill="#000000" />
<rect x="14" y="23" width="1" height="1" fill="#000000" />
<rect x="15" y="23" width="1" height="1" fill="#000000" />
<rect x="16" y="23" width="1" height="1" fill="#000000" />
<rect x="17" y="23" width="1" height="1" fill="#000000" />
<rect x="18" y="23" width="1" height="1" fill="#000000" />
<rect x="19" y="23" width="1" height="1" fill="#000000" />
<rect x="20" y="23" width="1" height="1" fill="#000000" />
<rect x="21" y="23" width="1" height="1" fill="#000000" />
<rect x="22" y="23" width="1" height="1" fill="#000000" />
<rect x="23" y="23" width="1" height="1" fill="#000000" />
<rect x="24" y="23" width="1" height="1" fill="#000000" />
<rect x="25" y="23" width="1" height="1" fill="#000000" />
<rect x="26" y="23" width="1" height="1" fill="#000000" />
<rect x="27" y="23" width="1" height="1" fill="#000000" />
<rect x="28" y="23" width="1" height="1" fill="#000000" />
<rect x="41" y="23" width="1" height="1" fill="#000000" />
<rect x="42" y="23" width="1" height="1" fill="#000000" />
<rect x="43" y="23" width="1" height="1" fill="#000000" />
<rect x="47" y="23" width="1" height="1" fill="#000000" />
<rect x="48" y="23" width="1" height="1" fill="#000000" />
<rect x="49" y="23" width="1" height="1" fill="#000000" />
<rect x="14" y="24" width="1" height="1" fill="#000000" />
<rect x="15" y="24" width="1" height="1" fill="#000000" />
<rect x="16" y="24" width="1" height="1" fill="#000000" />
<rect x="17" y="24" width="1" height="1" fill="#000000" />
<rect x="18" y="24" width="1" height="1" fill="#000000" />
<rect x="19" y="24" width="1" height="1" fill="#000000" />
<rect x="20" y="24" width="1" height="1" fill="#000000" />
<rect x="21" y="24" width="1" height="1" fill="#000000" />
<rect x="22" y="24" width="1" height="1" fill="#000000" />
<rect x="23" y="24" width="1" height="1" fill="#000000" />
<rect x="24" y="24" width="1" height="1" fill="#000000" />
<rect x="25" y="24" width="1" height="1" fill="#000000" />
<rect x="26" y="24" width="1" height="1" fill="#000000" />
<rect x="27" y="24" width="1" height="1" fill="#000000" />
<rect x="28" y="24" width="1" height="1" fill="#000000" />
<rect x="41" y="24" width="1" height="1" fill="#000000" />
<rect x="42" y="24" width="1" height="1" fill="#000000" />
<rect x="43" y="24" width="1" height="1" fill="#000000" />
<rect x="47" y="24" width="1" height="1" fill="#000000" />
<rect x="48" y="24" width="1" height="1" fill="#000000" />
<rect x="49" y="24" width="1" height="1" fill="#000000" />
<rect x="14" y="25" width="1" height="1" fill="#000000" />
<rect x="15" y="25" width="1" height="1" fill="#000000" />
<rect x="16" y="25" width="1" height="1" fill="#000000" />
<rect x="17" y="25" width="1" height="1" fill="#000000" />
<rect x="18" y="25" width="1" height="1" fill="#000000" />
<rect x="19" y="25" width="1" height="1" fill="#000000" />
<rect x="20" y="25" width="1" height="1" fill="#000000" />
<rect x="21" y="25" width="1" height="1" fill="#000000" />
<rect x="22" y="25" width="1" height="1" fill="#000000" />
<rect x="23" y="25" width="1" height="1" fill="#000000" />
<rect x="24" y="25" width="1" height="1" fill="#000000" />
<rect x="25" y="25" width="1" height="1" fill="#000000" />
<rect x="26" y="25" width="1" height="1" fill="#000000" />
<rect x="27" y="25" width="1" height="1" fill="#000000" />
<rect x="28" y="25" width="1" height="1" fill="#000000" />
<rect x="41" y="25" width="1" height="1" fill="#000000" />
<rect x="42" y="25" width="1" height="1" fill="#000000" />
<rect x="43" y="25" width="1" height="1" fill="#000000" />
<rect x="47" y="25" width="1" height="1" fill="#000000" />
<rect x="48" y="25" width="1" height="1" fill="#000000" />
<rect x="49" y="25" width="1" height="1" fill="#000000" />
<rect x="17" y="26" width="1" height="1" fill="#000000" />
<rect x="18" y="26" width="1" height="1" fill="#000000" />
<rect x="19" y="26" width="1" height="1" fill="#000000" />
<rect x="20" y="26" width="1" height="1" fill="#000000" />
<rect x="21" y="26" width="1" height="1" fill="#000000" />
<rect x="22" y="26" width="1" height="1" fill="#000000" />
<rect x="23" y="26" width="1" height="1" fill="#000000" />
<rect x="24" y="26" width="1" height="1" fill="#000000" />
<rect x="25" y="26" width="1" height="1" fill="#000000" />
<rect x="38" y="26" width="1" height="1" fill="#000000" />
<rect x="39" y="26" width="1" height="1" fill="#000000" />
<rect x="40" y="26" width="1" height="1" fill="#000000" />
<rect x="50" y="26" width="1" height="1" fill="#000000" />
<rect x="51" y="26" width="1" height="1" fill="#000000" />
<rect x="52" y="26" width="1" height="1" fill="#000000" />
<rect x="17" y="27" width="1" height="1" fill="#000000" />
<rect x="18" y="27" width="1" height="1" fill="#000000" />
<rect x="19" y="27" width="1" height="1" fill="#000000" />
<rect x="20" y="27" width="1" height="1" fill="#000000" />
<rect x="21" y="27" width="1" height="1" fill="#000000" />
<rect x="22" y="27" width="1" height="1" fill="#000000" />
<rect x="23" y="27" width="1" height="1" fill="#000000" />
<rect x="24" y="27" width="1" height="1" fill="#000000" />
<rect x="25" y="27" width="1" height="1" fill="#000000" />
<rect x="38" y="27" width="1" height="1" fill="#000000" />
<rect x="39" y="27" width="1" height="1" fill="#000000" />
<rect x="40" y="27" width="1" height="1" fill="#000000" />
<rect x="50" y="27" width="1" height="1" fill="#000000" />
<rect x="51" y="27" width="1" height="1" fill="#000000" />
<rect x="52" y="27" width="1" height="1" fill="#000000" />
<rect x="17" y="28" width="1" height="1" fill="#000000" />
<rect x="18" y="28" width="1" height="1" fill="#000000" />
<rect x="19" y="28" width="1" height="1" fill="#000000" />
<rect x="20" y="28" width="1" height="1" fill="#000000" />
<rect x="21" y="28" width="1" height="1" fill="#000000" />
<rect x="22" y="28" width="1" height="1" fill="#000000" />
<rect x="23" y="28" width="1" height="1" fill="#000000" />
<rect x="24" y="28" width="1" height="1" fill="#000000" />
<rect x="25" y="28" width="1" height="1" fill="#000000" />
<rect x="38" y="28" width="1" height="1" fill="#000000" />
<rect x="39" y="28" width="1" height="1" fill="#000000" />
<rect x="40" y="28" width="1" height="1" fill="#000000" />
<rect x="50" y="28" width="1" height="1" fill="#000000" />
<rect x="51" y="28" width="1" height="1" fill="#000000" />
<rect x="52" y="28" width="1" height="1" fill="#000000" />
<rect x="35" y="29" width="1" height="1" fill="#000000" />
<rect x="36" y="29" width="1" height="1" fill="#000000" />
<rect x="37" y="29" width="1" height="1" fill="#000000" />
<rect x="44" y="29" width="1" height="1" fill="#000000" />
<rect x="45" y="29" width="1" height="1" fill="#000000" />
<rect x="46" y="29" width="1" height="1" fill="#000000" />
<rect x="53" y="29" width="1" height="1" fill="#000000" />
<rect x="54" y="29" width="1" height="1" fill="#000000" />
<rect x="55" y="29" width="1" height="1" fill="#000000" />
<rect x="35" y="30" width="1" height="1" fill="#000000" />
<rect x="36" y="30" width="1" height="1" fill="#000000" />
<rect x="37" y="30" width="1" height="1" fill="#000000" />
<rect x="44" y="30" width="1" height="1" fill="#000000" />
<rect x="45" y="30" width="1" height="1" fill="#000000" />
<rect x="46" y="30" width="1" height="1" fill="#000000" />
<rect x="53" y="30" width="1" height="1" fill="#000000" />
<rect x="54" y="30" width="1" height="1" fill="#000000" />
<rect x="55" y="30" width="1" height="1" fill="#000000" />
<rect x="35" y="31" width="1" height="1" fill="#000000" />
<rect x="36" y="31" width="1" height="1" fill="#000000" />
<rect x="37" y="31" width="1" height="1" fill="#000000" />
<rect x="44" y="31" width="1" height="1" fill="#000000" />
<rect x="45" y="31" width="1" height="1" fill="#000000" />
<rect x="46" y="31" width="1" height="1" fill="#000000" />
<rect x="53" y="31" width="1" height="1" fill="#000000" />
<rect x="54" y="31" width="1" height="1" fill="#000000" />
<rect x="55" y="31" width="1" height="1" fill="#000000" />
<rect x="32" y="32" width="1" height="1" fill="#000000" />
<rect x="33" y="32" width="1" height="1" fill="#000000" />
<rect x="34" y="32" width="1" height="1" fill="#000000" />
<rect x="47" y="32" width="1" height="1" fill="#000000" />
<rect x="48" y="32" width="1" height="1" fill="#000000" />
<rect x="49" y="32" width="1" height="1" fill="#000000" />
<rect x="56" y="32" width="1" height="1" fill="#000000" />
<rect x="57" y="32" width="1" height="1" fill="#000000" />
<rect x="58" y="32" width="1" height="1" fill="#000000" />
<rect x="32" y="33" width="1" height="1" fill="#000000" />
<rect x="33" y="33" width="1" height="1" fill="#000000" />
<rect x="34" y="33" width="1" height="1" fill="#000000" />
<rect x="47" y="33" width="1" height="1" fill="#000000" />
<rect x="48" y="33" width="1" height="1" fill="#000000" />
<rect x="49" y="33" width="1" height="1" fill="#000000" />
<rect x="56" y="33" width="1" height="1" fill="#000000" />
<rect x="57" y="33" width="1" height="1" fill="#000000" />
<rect x="58" y="33" width="1" height="1" fill="#000000" />
<rect x="32" y="34" width="1" height="1" fill="#000000" />
<rect x="33" y="34" width="1" height="1" fill="#000000" />
<rect x="34" y="34" width="1" height="1" fill="#000000" />
<rect x="47" y="34" width="1" height="1" fill="#000000" />
<rect x="48" y="34" width="1" height="1" fill="#000000" />
<rect x="49" y="34" width="1" height="1" fill="#000000" />
<rect x="56" y="34" width="1" height="1" fill="#000000" />
<rect x="57" y="34" width="1" height="1" fill="#000000" />
<rect x="58" y="34" width="1" height="1" fill="#000000" />
<rect x="29" y="35" width="1" height="1" fill="#000000" />
<rect x="30" y="35" width="1" height="1" fill="#000000" />
<rect x="31" y="35" width="1" height="1" fill="#000000" />
<rect x="47" y="35" width="1" height="1" fill="#000000" />
<rect x="48" y="35" width="1" height="1" fill="#000000" />
<rect x="49" y="35" width="1" height="1" fill="#000000" />
<rect x="50" y="35" width="1" height="1" fill="#000000" />
<rect x="51" y="35" width="1" height="1" fill="#000000" />
<rect x="52" y="35" width="1" height="1" fill="#000000" />
<rect x="59" y="35" width="1" height="1" fill="#000000" />
<rect x="60" y="35" width="1" height="1" fill="#000000" />
<rect x="61" y="35" width="1" height="1" fill="#000000" />
<rect x="29" y="36" width="1" height="1" fill="#000000" />
<rect x="30" y="36" width="1" height="1" fill="#000000" />
<rect x="31" y="36" width="1" height="1" fill="#000000" />
<rect x="47" y="36" width="1" height="1" fill="#000000" />
<rect x="48" y="36" width="1" height="1" fill="#000000" />
<rect x="49" y="36" width="1" height="1" fill="#000000" />
<rect x="50" y="36" width="1" height="1" fill="#000000" />
<rect x="51" y="36" width="1" height="1" fill="#000000" />
<rect x="52" y="36" width="1" height="1" fill="#000000" />
<rect x="59" y="36" width="1" height="1" fill="#000000" />
<rect x="60" y="36" width="1" height="1" fill="#000000" />
<rect x="61" y="36" width="1" height="1" fill="#000000" />
<rect x="29" y="37" width="1" height="1" fill="#000000" />
<rect x="30" y="37" width="1" height="1" fill="#000000" />
<rect x="31" y="37" width="1" height="1" fill="#000000" />
<rect x="47" y="37" width="1" height="1" fill="#000000" />
<rect x="48" y="37" width="1" height="1" fill="#000000" />
<rect x="49" y="37" width="1" height="1" fill="#000000" />
<rect x="50" y="37" width="1" height="1" fill="#000000" />
<rect x="51" y="37" width="1" height="1" fill="#000000" />
<rect x="52" y="37" width="1" height="1" fill="#000000" />
<rect x="59" y="37" width="1" height="1" fill="#000000" />
<rect x="60" y="37" width="1" height="1" fill="#000000" />
<rect x="61" y="37" width="1" height="1" fill="#000000" />
<rect x="29" y="38" width="1" height="1" fill="#000000" />
<rect x="30" y="38" width="1" height="1" fill="#000000" />
<rect x="31" y="38" width="1" height="1" fill="#000000" />
<rect x="35" y="38" width="1" height="1" fill="#000000" />
<rect x="36" y="38" width="1" height="1" fill="#000000" />
<rect x="37" y="38" width="1" height="1" fill="#000000" />
<rect x="44" y="38" width="1" height="1" fill="#000000" />
<rect x="45" y="38" width="1" height="1" fill="#000000" />
<rect x="46" y="38" width="1" height="1" fill="#000000" />
<rect x="47" y="38" width="1" height="1" fill="#000000" />
<rect x="48" y="38" width="1" height="1" fill="#000000" />
<rect x="49" y="38" width="1" height="1" fill="#000000" />
<rect x="50" y="38" width="1" height="1" fill="#000000" />
<rect x="51" y="38" width="1" height="1" fill="#000000" />
<rect x="52" y="38" width="1" height="1" fill="#000000" />
<rect x="53" y="38" width="1" height="1" fill="#000000" />
<rect x="54" y="38" width="1" height="1" fill="#000000" />
<rect x="55" y="38" width="1" height="1" fill="#000000" />
<rect x="59" y="38" width="1" height="1" fill="#000000" />
<rect x="60" y="38" width="1" height="1" fill="#000000" />
<rect x="61" y="38" width="1" height="1" fill="#000000" />
<rect x="29" y="39" width="1" height="1" fill="#000000" />
<rect x="30" y="39" width="1" height="1" fill="#000000" />
<rect x="31" y="39" width="1" height="1" fill="#000000" />
<rect x="35" y="39" width="1" height="1" fill="#000000" />
<rect x="36" y="39" width="1" height="1" fill="#000000" />
<rect x="37" y="39" width="1" height="1" fill="#000000" />
<rect x="44" y="39" width="1" height="1" fill="#000000" />
<rect x="45" y="39" width="1" height="1" fill="#000000" />
<rect x="46" y="39" width="1" height="1" fill="#000000" />
<rect x="47" y="39" width="1" height="1" fill="#000000" />
<rect x="48" y="39" width="1" height="1" fill="#000000" />
<rect x="49" y="39" width="1" height="1" fill="#000000" />
<rect x="50" y="39" width="1" height="1" fill="#000000" />
<rect x="51" y="39" width="1" height="1" fill="#000000" />
<rect x="52" y="39" width="1" height="1" fill="#000000" />
<rect x="53" y="39" width="1" height="1" fill="#000000" />
<rect x="54" y="39" width="1" height="1" fill="#000000" />
<rect x="55" y="39" width="1" height="1" fill="#000000" />
<rect x="59" y="39" width="1" height="1" fill="#000000" />
<rect x="60" y="39" width="1" height="1" fill="#000000" />
<rect x="61" y="39" width="1" height="1" fill="#000000" />
<rect x="29" y="40" width="1" height="1" fill="#000000" />
<rect x="30" y="40" width="1" height="1" fill="#000000" />
<rect x="31" y="40" width="1" height="1" fill="#000000" />
<rect x="35" y="40" width="1" height="1" fill="#000000" />
<rect x="36" y="40" width="1" height="1" fill="#000000" />
<rect x="37" y="40" width="1" height="1" fill="#000000" />
<rect x="44" y="40" width="1" height="1" fill="#000000" />
<rect x="45" y="40" width="1" height="1" fill="#000000" />
<rect x="46" y="40" width="1" height="1" fill="#000000" />
<rect x="47" y="40" width="1" height="1" fill="#000000" />
<rect x="48" y="40" width="1" height="1" fill="#000000" />
<rect x="49" y="40" width="1" height="1" fill="#000000" />
<rect x="50" y="40" width="1" height="1" fill="#000000" />
<rect x="51" y="40" width="1" height="1" fill="#000000" />
<rect x="52" y="40" width="1" height="1" fill="#000000" />
<rect x="53" y="40" width="1" height="1" fill="#000000" />
<rect x="54" y="40" width="1" height="1" fill="#000000" />
<rect x="55" y="40" width="1" height="1" fill="#000000" />
<rect x="59" y="40" width="1" height="1" fill="#000000" />
<rect x="60" y="40" width="1" height="1" fill="#000000" />
<rect x="61" y="40" width="1" height="1" fill="#000000" />
<rect x="29" y="41" width="1" height="1" fill="#000000" />
<rect x="30" y="41" width="1" height="1" fill="#000000" />
<rect x="31" y="41" width="1" height="1" fill="#000000" />
<rect x="35" y="41" width="1" height="1" fill="#000000" />
<rect x="36" y="41" width="1" height="1" fill="#000000" />
<rect x="37" y="41" width="1" height="1" fill="#000000" />
<rect x="38" y="41" width="1" height="1" fill="#000000" />
<rect x="39" y="41" width="1" height="1" fill="#000000" />
<rect x="40" y="41" width="1" height="1" fill="#000000" />
<rect x="41" y="41" width="1" height="1" fill="#000000" />
<rect x="42" y="41" width="1" height="1" fill="#000000" />
<rect x="43" y="41" width="1" height="1" fill="#000000" />
<rect x="44" y="41" width="1" height="1" fill="#000000" />
<rect x="45" y="41" width="1" height="1" fill="#000000" />
<rect x="46" y="41" width="1" height="1" fill="#000000" />
<rect x="47" y="41" width="1" height="1" fill="#000000" />
<rect x="48" y="41" width="1" height="1" fill="#000000" />
<rect x="49" y="41" width="1" height="1" fill="#000000" />
<rect x="50" y="41" width="1" height="1" fill="#000000" />
<rect x="51" y="41" width="1" height="1" fill="#000000" />
<rect x="52" y="41" width="1" height="1" fill="#000000" />
<rect x="53" y="41" width="1" height="1" fill="#000000" />
<rect x="54" y="41" width="1" height="1" fill="#000000" />
<rect x="55" y="41" width="1" height="1" fill="#000000" />
<rect x="59" y="41" width="1" height="1" fill="#000000" />
<rect x="60" y="41" width="1" height="1" fill="#000000" />
<rect x="61" y="41" width="1" height="1" fill="#000000" />
<rect x="29" y="42" width="1" height="1" fill="#000000" />
<rect x="30" y="42" width="1" height="1" fill="#000000" />
<rect x="31" y="42" width="1" height="1" fill="#000000" />
<rect x="35" y="42" width="1" height="1" fill="#000000" />
<rect x="36" y="42" width="1" height="1" fill="#000000" />
<rect x="37" y="42" width="1" height="1" fill="#000000" />
<rect x="38" y="42" width="1" height="1" fill="#000000" />
<rect x="39" y="42" width="1" height="1" fill="#000000" />
<rect x="40" y="42" width="1" height="1" fill="#000000" />
<rect x="41" y="42" width="1" height="1" fill="#000000" />
<rect x="42" y="42" width="1" height="1" fill="#000000" />
<rect x="43" y="42" width="1" height="1" fill="#000000" />
<rect x="44" y="42" width="1" height="1" fill="#000000" />
<rect x="45" y="42" width="1" height="1" fill="#000000" />
<rect x="46" y="42" width="1" height="1" fill="#000000" />
<rect x="47" y="42" width="1" height="1" fill="#000000" />
<rect x="48" y="42" width="1" height="1" fill="#000000" />
<rect x="49" y="42" width="1" height="1" fill="#000000" />
<rect x="50" y="42" width="1" height="1" fill="#000000" />
<rect x="51" y="42" width="1" height="1" fill="#000000" />
<rect x="52" y="42" width="1" height="1" fill="#000000" />
<rect x="53" y="42" width="1" height="1" fill="#000000" />
<rect x="54" y="42" width="1" height="1" fill="#000000" />
<rect x="55" y="42" width="1" height="1" fill="#000000" />
<rect x="59" y="42" width="1" height="1" fill="#000000" />
<rect x="60" y="42" width="1" height="1" fill="#000000" />
<rect x="61" y="42" width="1" height="1" fill="#000000" />
<rect x="29" y="43" width="1" height="1" fill="#000000" />
<rect x="30" y="43" width="1" height="1" fill="#000000" />
<rect x="31" y="43" width="1" height="1" fill="#000000" />
<rect x="35" y="43" width="1" height="1" fill="#000000" />
<rect x="36" y="43" width="1" height="1" fill="#000000" />
<rect x="37" y="43" width="1" height="1" fill="#000000" />
<rect x="38" y="43" width="1" height="1" fill="#000000" />
<rect x="39" y="43" width="1" height="1" fill="#000000" />
<rect x="40" y="43" width="1" height="1" fill="#000000" />
<rect x="41" y="43" width="1" height="1" fill="#000000" />
<rect x="42" y="43" width="1" height="1" fill="#000000" />
<rect x="43" y="43" width="1" height="1" fill="#000000" />
<rect x="44" y="43" width="1" height="1" fill="#000000" />
<rect x="45" y="43" width="1" height="1" fill="#000000" />
<rect x="46" y="43" width="1" height="1" fill="#000000" />
<rect x="47" y="43" width="1" height="1" fill="#000000" />
<rect x="48" y="43" width="1" height="1" fill="#000000" />
<rect x="49" y="43" width="1" height="1" fill="#000000" />
<rect x="50" y="43" width="1" height="1" fill="#000000" />
<rect x="51" y="43" width="1" height="1" fill="#000000" />
<rect x="52" y="43" width="1" height="1" fill="#000000" />
<rect x="53" y="43" width="1" height="1" fill="#000000" />
<rect x="54" y="43" width="1" height="1" fill="#000000" />
<rect x="55" y="43" width="1" height="1" fill="#000000" />
<rect x="59" y="43" width="1" height="1" fill="#000000" />
<rect x="60" y="43" width="1" height="1" fill="#000000" />
<rect x="61" y="43" width="1" height="1" fill="#000000" />
<rect x="29" y="44" width="1" height="1" fill="#000000" />
<rect x="30" y="44" width="1" height="1" fill="#000000" />
<rect x="31" y="44" width="1" height="1" fill="#000000" />
<rect x="35" y="44" width="1" height="1" fill="#000000" />
<rect x="36" y="44" width="1" height="1" fill="#000000" />
<rect x="37" y="44" width="1" height="1" fill="#000000" />
<rect x="38" y="44" width="1" height="1" fill="#000000" />
<rect x="39" y="44" width="1" height="1" fill="#000000" />
<rect x="40" y="44" width="1" height="1" fill="#000000" />
<rect x="41" y="44" width="1" height="1" fill="#000000" />
<rect x="42" y="44" width="1" height="1" fill="#000000" />
<rect x="43" y="44" width="1" height="1" fill="#000000" />
<rect x="44" y="44" width="1" height="1" fill="#000000" />
<rect x="45" y="44" width="1" height="1" fill="#000000" />
<rect x="46" y="44" width="1" height="1" fill="#000000" />
<rect x="47" y="44" width="1" height="1" fill="#000000" />
<rect x="48" y="44" width="1" height="1" fill="#000000" />
<rect x="49" y="44" width="1" height="1" fill="#000000" />
<rect x="50" y="44" width="1" height="1" fill="#000000" />
<rect x="51" y="44" width="1" height="1" fill="#000000" />
<rect x="52" y="44" width="1" height="1" fill="#000000" />
<rect x="56" y="44" width="1" height="1" fill="#000000" />
<rect x="57" y="44" width="1" height="1" fill="#000000" />
<rect x="58" y="44" width="1" height="1" fill="#000000" />
<rect x="59" y="44" width="1" height="1" fill="#000000" />
<rect x="60" y="44" width="1" height="1" fill="#000000" />
<rect x="61" y="44" width="1" height="1" fill="#000000" />
<rect x="29" y="45" width="1" height="1" fill="#000000" />
<rect x="30" y="45" width="1" height="1" fill="#000000" />
<rect x="31" y="45" width="1" height="1" fill="#000000" />
<rect x="35" y="45" width="1" height="1" fill="#000000" />
<rect x="36" y="45" width="1" height="1" fill="#000000" />
<rect x="37" y="45" width="1" height="1" fill="#000000" />
<rect x="38" y="45" width="1" height="1" fill="#000000" />
<rect x="39" y="45" width="1" height="1" fill="#000000" />
<rect x="40" y="45" width="1" height="1" fill="#000000" />
<rect x="41" y="45" width="1" height="1" fill="#000000" />
<rect x="42" y="45" width="1" height="1" fill="#000000" />
<rect x="43" y="45" width="1" height="1" fill="#000000" />
<rect x="44" y="45" width="1" height="1" fill="#000000" />
<rect x="45" y="45" width="1" height="1" fill="#000000" />
<rect x="46" y="45" width="1" height="1" fill="#000000" />
<rect x="47" y="45" width="1" height="1" fill="#000000" />
<rect x="48" y="45" width="1" height="1" fill="#000000" />
<rect x="49" y="45" width="1" height="1" fill="#000000" />
<rect x="50" y="45" width="1" height="1" fill="#000000" />
<rect x="51" y="45" width="1" height="1" fill="#000000" />
<rect x="52" y="45" width="1" height="1" fill="#000000" />
<rect x="56" y="45" width="1" height="1" fill="#000000" />
<rect x="57" y="45" width="1" height="1" fill="#000000" />
<rect x="58" y="45" width="1" height="1" fill="#000000" />
<rect x="59" y="45" width="1" height="1" fill="#000000" />
<rect x="60" y="45" width="1" height="1" fill="#000000" />
<rect x="61" y="45" width="1" height="1" fill="#000000" />
<rect x="29" y="46" width="1" height="1" fill="#000000" />
<rect x="30" y="46" width="1" height="1" fill="#000000" />
<rect x="31" y="46" width="1" height="1" fill="#000000" />
<rect x="35" y="46" width="1" height="1" fill="#000000" />
<rect x="36" y="46" width="1" height="1" fill="#000000" />
<rect x="37" y="46" width="1" height="1" fill="#000000" />
<rect x="38" y="46" width="1" height="1" fill="#000000" />
<rect x="39" y="46" width="1" height="1" fill="#000000" />
<rect x="40" y="46" width="1" height="1" fill="#000000" />
<rect x="41" y="46" width="1" height="1" fill="#000000" />
<rect x="42" y="46" width="1" height="1" fill="#000000" />
<rect x="43" y="46" width="1" height="1" fill="#000000" />
<rect x="44" y="46" width="1" height="1" fill="#000000" />
<rect x="45" y="46" width="1" height="1" fill="#000000" />
<rect x="46" y="46" width="1" height="1" fill="#000000" />
<rect x="47" y="46" width="1" height="1" fill="#000000" />
<rect x="48" y="46" width="1" height="1" fill="#000000" />
<rect x="49" y="46" width="1" height="1" fill="#000000" />
<rect x="50" y="46" width="1" height="1" fill="#000000" />
<rect x="51" y="46" width="1" height="1" fill="#000000" />
<rect x="52" y="46" width="1" height="1" fill="#000000" />
<rect x="56" y="46" width="1" height="1" fill="#000000" />
<rect x="57" y="46" width="1" height="1" fill="#000000" />
<rect x="58" y="46" width="1" height="1" fill="#000000" />
<rect x="59" y="46" width="1" height="1" fill="#000000" />
<rect x="60" y="46" width="1" height="1" fill="#000000" />
<rect x="61" y="46" width="1" height="1" fill="#000000" />
<rect x="29" y="47" width="1" height="1" fill="#000000" />
<rect x="30" y="47" width="1" height="1" fill="#000000" />
<rect x="31" y="47" width="1" height="1" fill="#000000" />
<rect x="32" y="47" width="1" height="1" fill="#000000" />
<rect x="33" y="47" width="1" height="1" fill="#000000" />
<rect x="34" y="47" width="1" height="1" fill="#000000" />
<rect x="38" y="47" width="1" height="1" fill="#000000" />
<rect x="39" y="47" width="1" height="1" fill="#000000" />
<rect x="40" y="47" width="1" height="1" fill="#000000" />
<rect x="41" y="47" width="1" height="1" fill="#000000" />
<rect x="42" y="47" width="1" height="1" fill="#000000" />
<rect x="43" y="47" width="1" height="1" fill="#000000" />
<rect x="44" y="47" width="1" height="1" fill="#000000" />
<rect x="45" y="47" width="1" height="1" fill="#000000" />
<rect x="46" y="47" width="1" height="1" fill="#000000" />
<rect x="47" y="47" width="1" height="1" fill="#000000" />
<rect x="48" y="47" width="1" height="1" fill="#000000" />
<rect x="49" y="47" width="1" height="1" fill="#000000" />
<rect x="53" y="47" width="1" height="1" fill="#000000" />
<rect x="54" y="47" width="1" height="1" fill="#000000" />
<rect x="55" y="47" width="1" height="1" fill="#000000" />
<rect x="56" y="47" width="1" height="1" fill="#000000" />
<rect x="57" y="47" width="1" height="1" fill="#000000" />
<rect x="58" y="47" width="1" height="1" fill="#000000" />
<rect x="59" y="47" width="1" height="1" fill="#000000" />
<rect x="60" y="47" width="1" height="1" fill="#000000" />
<rect x="61" y="47" width="1" height="1" fill="#000000" />
<rect x="29" y="48" width="1" height="1" fill="#000000" />
<rect x="30" y="48" width="1" height="1" fill="#000000" />
<rect x="31" y="48" width="1" height="1" fill="#000000" />
<rect x="32" y="48" width="1" height="1" fill="#000000" />
<rect x="33" y="48" width="1" height="1" fill="#000000" />
<rect x="34" y="48" width="1" height="1" fill="#000000" />
<rect x="38" y="48" width="1" height="1" fill="#000000" />
<rect x="39" y="48" width="1" height="1" fill="#000000" />
<rect x="40" y="48" width="1" height="1" fill="#000000" />
<rect x="41" y="48" width="1" height="1" fill="#000000" />
<rect x="42" y="48" width="1" height="1" fill="#000000" />
<rect x="43" y="48" width="1" height="1" fill="#000000" />
<rect x="44" y="48" width="1" height="1" fill="#000000" />
<rect x="45" y="48" width="1" height="1" fill="#000000" />
<rect x="46" y="48" width="1" height="1" fill="#000000" />
<rect x="47" y="48" width="1" height="1" fill="#000000" />
<rect x="48" y="48" width="1" height="1" fill="#000000" />
<rect x="49" y="48" width="1" height="1" fill="#000000" />
<rect x="53" y="48" width="1" height="1" fill="#000000" />
<rect x="54" y="48" width="1" height="1" fill="#000000" />
<rect x="55" y="48" width="1" height="1" fill="#000000" />
<rect x="56" y="48" width="1" height="1" fill="#000000" />
<rect x="57" y="48" width="1" height="1" fill="#000000" />
<rect x="58" y="48" width="1" height="1" fill="#000000" />
<rect x="59" y="48" width="1" height="1" fill="#000000" />
<rect x="60" y="48" width="1" height="1" fill="#000000" />
<rect x="61" y="48" width="1" height="1" fill="#000000" />
<rect x="29" y="49" width="1" height="1" fill="#000000" />
<rect x="30" y="49" width="1" height="1" fill="#000000" />
<rect x="31" y="49" width="1" height="1" fill="#000000" />
<rect x="32" y="49" width="1" height="1" fill="#000000" />
<rect x="33" y="49" width="1" height="1" fill="#000000" />
<rect x="34" y="49" width="1" height="1" fill="#000000" />
<rect x="38" y="49" width="1" height="1" fill="#000000" />
<rect x="39" y="49" width="1" height="1" fill="#000000" />
<rect x="40" y="49" width="1" height="1" fill="#000000" />
<rect x="41" y="49" width="1" height="1" fill="#000000" />
<rect x="42" y="49" width="1" height="1" fill="#000000" />
<rect x="43" y="49" width="1" height="1" fill="#000000" />
<rect x="44" y="49" width="1" height="1" fill="#000000" />
<rect x="45" y="49" width="1" height="1" fill="#000000" />
<rect x="46" y="49" width="1" height="1" fill="#000000" />
<rect x="47" y="49" width="1" height="1" fill="#000000" />
<rect x="48" y="49" width="1" height="1" fill="#000000" />
<rect x="49" y="49" width="1" height="1" fill="#000000" />
<rect x="53" y="49" width="1" height="1" fill="#000000" />
<rect x="54" y="49" width="1" height="1" fill="#000000" />
<rect x="55" y="49" width="1" height="1" fill="#000000" />
<rect x="56" y="49" width="1" height="1" fill="#000000" />
<rect x="57" y="49" width="1" height="1" fill="#000000" />
<rect x="58" y="49" width="1" height="1" fill="#000000" />
<rect x="59" y="49" width="1" height="1" fill="#000000" />
<rect x="60" y="49" width="1" height="1" fill="#000000" />
<rect x="61" y="49" width="1" height="1" fill="#000000" />
<rect x="32" y="50" width="1" height="1" fill="#000000" />
<rect x="33" y="50" width="1" height="1" fill="#000000" />
<rect x="34" y="50" width="1" height="1" fill="#000000" />
<rect x="35" y="50" width="1" height="1" fill="#000000" />
<rect x="36" y="50" width="1" height="1" fill="#000000" />
<rect x="37" y="50" width="1" height="1" fill="#000000" />
<rect x="50" y="50" width="1" height="1" fill="#000000" />
<rect x="51" y="50" width="1" height="1" fill="#000000" />
<rect x="52" y="50" width="1" height="1" fill="#000000" />
<rect x="53" y="50" width="1" height="1" fill="#000000" />
<rect x="54" y="50" width="1" height="1" fill="#000000" />
<rect x="55" y="50" width="1" height="1" fill="#000000" />
<rect x="56" y="50" width="1" height="1" fill="#000000" />
<rect x="57" y="50" width="1" height="1" fill="#000000" />
<rect x="58" y="50" width="1" height="1" fill="#000000" />
<rect x="32" y="51" width="1" height="1" fill="#000000" />
<rect x="33" y="51" width="1" height="1" fill="#000000" />
<rect x="34" y="51" width="1" height="1" fill="#000000" />
<rect x="35" y="51" width="1" height="1" fill="#000000" />
<rect x="36" y="51" width="1" height="1" fill="#000000" />
<rect x="37" y="51" width="1" height="1" fill="#000000" />
<rect x="50" y="51" width="1" height="1" fill="#000000" />
<rect x="51" y="51" width="1" height="1" fill="#000000" />
<rect x="52" y="51" width="1" height="1" fill="#000000" />
<rect x="53" y="51" width="1" height="1" fill="#000000" />
<rect x="54" y="51" width="1" height="1" fill="#000000" />
<rect x="55" y="51" width="1" height="1" fill="#000000" />
<rect x="56" y="51" width="1" height="1" fill="#000000" />
<rect x="57" y="51" width="1" height="1" fill="#000000" />
<rect x="58" y="51" width="1" height="1" fill="#000000" />
<rect x="32" y="52" width="1" height="1" fill="#000000" />
<rect x="33" y="52" width="1" height="1" fill="#000000" />
<rect x="34" y="52" width="1" height="1" fill="#000000" />
<rect x="35" y="52" width="1" height="1" fill="#000000" />
<rect x="36" y="52" width="1" height="1" fill="#000000" />
<rect x="37" y="52" width="1" height="1" fill="#000000" />
<rect x="50" y="52" width="1" height="1" fill="#000000" />
<rect x="51" y="52" width="1" height="1" fill="#000000" />
<rect x="52" y="52" width="1" height="1" fill="#000000" />
<rect x="53" y="52" width="1" height="1" fill="#000000" />
<rect x="54" y="52" width="1" height="1" fill="#000000" />
<rect x="55" y="52" width="1" height="1" fill="#000000" />
<rect x="56" y="52" width="1" height="1" fill="#000000" />
<rect x="57" y="52" width="1" height="1" fill="#000000" />
<rect x="58" y="52" width="1" height="1" fill="#000000" />
<rect x="35" y="53" width="1" height="1" fill="#000000" />
<rect x="36" y="53" width="1" height="1" fill="#000000" />
<rect x="37" y="53" width="1" height="1" fill="#000000" />
<rect x="38" y="53" width="1" height="1" fill="#000000" />
<rect x="39" y="53" width="1" height="1" fill="#000000" />
<rect x="40" y="53" width="1" height="1" fill="#000000" />
<rect x="41" y="53" width="1" height="1" fill="#000000" />
<rect x="42" y="53" width="1" height="1" fill="#000000" />
<rect x="43" y="53" width="1" height="1" fill="#000000" />
<rect x="44" y="53" width="1" height="1" fill="#000000" />
<rect x="45" y="53" width="1" height="1" fill="#000000" />
<rect x="46" y="53" width="1" height="1" fill="#000000" />
<rect x="47" y="53" width="1" height="1" fill="#000000" />
<rect x="48" y="53" width="1" height="1" fill="#000000" />
<rect x="49" y="53" width="1" height="1" fill="#000000" />
<rect x="50" y="53" width="1" height="1" fill="#000000" />
<rect x="51" y="53" width="1" height="1" fill="#000000" />
<rect x="52" y="53" width="1" height="1" fill="#000000" />
<rect x="53" y="53" width="1" height="1" fill="#000000" />
<rect x="54" y="53" width="1" height="1" fill="#000000" />
<rect x="55" y="53" width="1" height="1" fill="#000000" />
<rect x="35" y="54" width="1" height="1" fill="#000000" />
<rect x="36" y="54" width="1" height="1" fill="#000000" />
<rect x="37" y="54" width="1" height="1" fill="#000000" />
<rect x="38" y="54" width="1" height="1" fill="#000000" />
<rect x="39" y="54" width="1" height="1" fill="#000000" />
<rect x="40" y="54" width="1" height="1" fill="#000000" />
<rect x="41" y="54" width="1" height="1" fill="#000000" />
<rect x="42" y="54" width="1" height="1" fill="#000000" />
<rect x="43" y="54" width="1" height="1" fill="#000000" />
<rect x="44" y="54" width="1" height="1" fill="#000000" />
<rect x="45" y="54" width="1" height="1" fill="#000000" />
<rect x="46" y="54" width="1" height="1" fill="#000000" />
<rect x="47" y="54" width="1" height="1" fill="#000000" />
<rect x="48" y="54" width="1" height="1" fill="#000000" />
<rect x="49" y="54" width="1" height="1" fill="#000000" />
<rect x="50" y="54" width="1" height="1" fill="#000000" />
<rect x="51" y="54" width="1" height="1" fill="#000000" />
<rect x="52" y="54" width="1" height="1" fill="#000000" />
<rect x="53" y="54" width="1" height="1" fill="#000000" />
<rect x="54" y="54" width="1" height="1" fill="#000000" />
<rect x="55" y="54" width="1" height="1" fill="#000000" />
<rect x="35" y="55" width="1" height="1" fill="#000000" />
<rect x="36" y="55" width="1" height="1" fill="#000000" />
<rect x="37" y="55" width="1" height="1" fill="#000000" />
<rect x="38" y="55" width="1" height="1" fill="#000000" />
<rect x="39" y="55" width="1" height="1" fill="#000000" />
<rect x="40" y="55" width="1" height="1" fill="#000000" />
<rect x="41" y="55" width="1" height="1" fill="#000000" />
<rect x="42" y="55" width="1" height="1" fill="#000000" />
<rect x="43" y="55" width="1" height="1" fill="#000000" />
<rect x="44" y="55" width="1" height="1" fill="#000000" />
<rect x="45" y="55" width="1" height="1" fill="#000000" />
<rect x="46" y="55" width="1" height="1" fill="#000000" />
<rect x="47" y="55" width="1" height="1" fill="#000000" />
<rect x="48" y="55" width="1" height="1" fill="#000000" />
<rect x="49" y="55" width="1" height="1" fill="#000000" />
<rect x="50" y="55" width="1" height="1" fill="#000000" />
<rect x="51" y="55" width="1" height="1" fill="#000000" />
<rect x="52" y="55" width="1" height="1" fill="#000000" />
<rect x="53" y="55" width="1" height="1" fill="#000000" />
<rect x="54" y="55" width="1" height="1" fill="#000000" />
<rect x="55" y="55" width="1" height="1" fill="#000000" />
<rect x="38" y="56" width="1" height="1" fill="#000000" />
<rect x="39" y="56" width="1" height="1" fill="#000000" />
<rect x="40" y="56" width="1" height="1" fill="#000000" />
<rect x="41" y="56" width="1" height="1" fill="#000000" />
<rect x="42" y="56" width="1" height="1" fill="#000000" />
<rect x="43" y="56" width="1" height="1" fill="#000000" />
<rect x="44" y="56" width="1" height="1" fill="#000000" />
<rect x="45" y="56" width="1" height="1" fill="#000000" />
<rect x="46" y="56" width="1" height="1" fill="#000000" />
<rect x="47" y="56" width="1" height="1" fill="#000000" />
<rect x="48" y="56" width="1" height="1" fill="#000000" />
<rect x="49" y="56" width="1" height="1" fill="#000000" />
<rect x="50" y="56" width="1" height="1" fill="#000000" />
<rect x="51" y="56" width="1" height="1" fill="#000000" />
<rect x="52" y="56" width="1" height="1" fill="#000000" />
<rect x="38" y="57" width="1" height="1" fill="#000000" />
<rect x="39" y="57" width="1" height="1" fill="#000000" />
<rect x="40" y="57" width="1" height="1" fill="#000000" />
<rect x="41" y="57" width="1" height="1" fill="#000000" />
<rect x="42" y="57" width="1" height="1" fill="#000000" />
<rect x="43" y="57" width="1" height="1" fill="#000000" />
<rect x="44" y="57" width="1" height="1" fill="#000000" />
<rect x="45" y="57" width="1" height="1" fill="#000000" />
<rect x="46" y="57" width="1" height="1" fill="#000000" />
<rect x="47" y="57" width="1" height="1" fill="#000000" />
<rect x="48" y="57" width="1" height="1" fill="#000000" />
<rect x="49" y="57" width="1" height="1" fill="#000000" />
<rect x="50" y="57" width="1" height="1" fill="#000000" />
<rect x="51" y="57" width="1" height="1" fill="#000000" />
<rect x="52" y="57" width="1" height="1" fill="#000000" />
<rect x="38" y="58" width="1" height="1" fill="#000000" />
<rect x="39" y="58" width="1" height="1" fill="#000000" />
<rect x="40" y="58" width="1" height="1" fill="#000000" />
<rect x="41" y="58" width="1" height="1" fill="#000000" />
<rect x="42" y="58" width="1" height="1" fill="#000000" />
<rect x="43" y="58" width="1" height="1" fill="#000000" />
<rect x="44" y="58" width="1" height="1" fill="#000000" />
<rect x="45" y="58" width="1" height="1" fill="#000000" />
<rect x="46" y="58" width="1" height="1" fill="#000000" />
<rect x="47" y="58" width="1" height="1" fill="#000000" />
<rect x="48" y="58" width="1" height="1" fill="#000000" />
<rect x="49" y="58" width="1" height="1" fill="#000000" />
<rect x="50" y="58" width="1" height="1" fill="#000000" />
<rect x="51" y="58" width="1" height="1" fill="#000000" />
<rect x="52" y="58" width="1" height="1" fill="#000000" />
</svg>