<?xml version="1.0" encoding="UTF-8" ?>
<svg version="1.1" width="50" height="46" xmlns="http://www.w3.org/2000/svg" shape-rendering="crispEdges">
<rect x="10" y="12" width="1" height="1" fill="#000000" />
<rect x="11" y="12" width="1" height="1" fill="#000000" />
<rect x="12" y="12" width="1" height="1" fill="#000000" />
<rect x="13" y="12" width="1" height="1" fill="#000000" />
<rect x="14" y="12" width="1" height="1" fill="#000000" />
<rect x="15" y="12" width="1" height="1" fill="#000000" />
<rect x="16" y="12" width="1" height="1" fill="#000000" />
<rect x="17" y="12" width="1" height="1" fill="#000000" />
<rect x="18" y="12" width="1" height="1" fill="#000000" />
<rect x="19" y="12" width="1" height="1" fill="#000000" />
<rect x="20" y="12" width="1" height="1" fill="#000000" />
<rect x="21" y="12" width="1" height="1" fill="#000000" />
<rect x="22" y="12" width="1" height="1" fill="#000000" />
<rect x="23" y="12" width="1" height="1" fill="#000000" />
<rect x="24" y="12" width="1" height="1" fill="#000000" />
<rect x="25" y="12" width="1" height="1" fill="#000000" />
<rect x="26" y="12" width="1" height="1" fill="#000000" />
<rect x="27" y="12" width="1" height="1" fill="#000000" />
<rect x="28" y="12" width="1" height="1" fill="#000000" />
<rect x="29" y="12" width="1" height="1" fill="#000000" />
<rect x="30" y="12" width="1" height="1" fill="#000000" />
<rect x="31" y="12" width="1" height="1" fill="#000000" />
<rect x="32" y="12" width="1" height="1" fill="#000000" />
<rect x="33" y="12" width="1" height="1" fill="#000000" />
<rect x="34" y="12" width="1" height="1" fill="#000000" />
<rect x="35" y="12" width="1" height="1" fill="#000000" />
<rect x="36" y="12" width="1" height="1" fill="#000000" />
<rect x="37" y="12" width="1" height="1" fill="#000000" />
<rect x="38" y="12" width="1" height="1" fill="#000000" />
<rect x="39" y="12" width="1" height="1" fill="#000000" />
<rect x="10" y="13" width="1" height="1" fill="#000000" />
<rect x="11" y="13" width="1" height="1" fill="#000000" />
<rect x="12" y="13" width="1" height="1" fill="#000000" />
<rect x="13" y="13" width="1" height="1" fill="#000000" />
<rect x="14" y="13" width="1" height="1" fill="#000000" />
<rect x="15" y="13" width="1" height="1" fill="#000000" />
<rect x="16" y="13" width="1" height="1" fill="#000000" />
<rect x="17" y="13" width="1" height="1" fill="#000000" />
<rect x="18" y="13" width="1" height="1" fill="#000000" />
<rect x="19" y="13" width="1" height="1" fill="#000000" />
<rect x="20" y="13" width="1" height="1" fill="#000000" />
<rect x="21" y="13" width="1" height="1" fill="#000000" />
<rect x="22" y="13" width="1" height="1" fill="#000000" />
<rect x="23" y="13" width="1" height="1" fill="#000000" />
<rect x="24" y="13" width="1" height="1" fill="#000000" />
<rect x="25" y="13" width="1" height="1" fill="#000000" />
<rect x="26" y="13" width="1" height="1" fill="#000000" />
<rect x="27" y="13" width="1" height="1" fill="#000000" />
<rect x="28" y="13" width="1" height="1" fill="#000000" />
<rect x="29" y="13" width="1" height="1" fill="#000000" />
<rect x="30" y="13" width="1" height="1" fill="#000000" />
<rect x="31" y="13" width="1" height="1" fill="#000000" />
<rect x="32" y="13" width="1" height="1" fill="#000000" />
<rect x="33" y="13" width="1" height="1" fill="#000000" />
<rect x="34" y="13" width="1" height="1" fill="#000000" />
<rect x="35" y="13" width="1" height="1" fill="#000000" />
<rect x="36" y="13" width="1" height="1" fill="#000000" />
<rect x="37" y="13" width="1" height="1" fill="#000000" />
<rect x="38" y="13" width="1" height="1" fill="#000000" />
<rect x="39" y="13" width="1" height="1" fill="#000000" />
<rect x="8" y="14" width="1" height="1" fill="#000000" />
<rect x="9" y="14" width="1" height="1" fill="#000000" />
<rect x="10" y="14" width="1" height="1" fill="#000000" />
<rect x="11" y="14" width="1" height="1" fill="#000000" />
<rect x="12" y="14" width="1" height="1" fill="#000000" />
<rect x="13" y="14" width="1" height="1" fill="#000000" />
<rect x="14" y="14" width="1" height="1" fill="#000000" />
<rect x="15" y="14" width="1" height="1" fill="#000000" />
<rect x="16" y="14" width="1" height="1" fill="#000000" />
<rect x="17" y="14" width="1" height="1" fill="#000000" />
<rect x="18" y="14" width="1" height="1" fill="#000000" />
<rect x="19" y="14" width="1" height="1" fill="#000000" />
<rect x="20" y="14" width="1" height="1" fill="#000000" />
<rect x="21" y="14" width="1" height="1" fill="#000000" />
<rect x="22" y="14" width="1" height="1" fill="#000000" />
<rect x="23" y="14" width="1" height="1" fill="#000000" />
<rect x="24" y="14" width="1" height="1" fill="#000000" />
<rect x="25" y="14" width="1" height="1" fill="#000000" />
<rect x="26" y="14" width="1" height="1" fill="#000000" />
<rect x="27" y="14" width="1" height="1" fill="#000000" />
<rect x="28" y="14" width="1" height="1" fill="#000000" />
<rect x="29" y="14" width="1" height="1" fill="#000000" />
<rect x="30" y="14" width="1" height="1" fill="#000000" />
<rect x="31" y="14" width="1" height="1" fill="#000000" />
<rect x="32" y="14" width="1" height="1" fill="#000000" />
<rect x="33" y="14" width="1" height="1" fill="#000000" />
<rect x="34" y="14" width="1" height="1" fill="#000000" />
<rect x="35" y="14" width="1" height="1" fill="#000000" />
<rect x="36" y="14" width="1" height="1" fill="#000000" />
<rect x="37" y="14" width="1" height="1" fill="#000000" />
<rect x="38" y="14" width="1" height="1" fill="#000000" />
<rect x="39" y="14" width="1" height="1" fill="#000000" />
<rect x="40" y="14" width="1" height="1" fill="#000000" />
<rect x="41" y="14" width="1" height="1" fill="#000000" />
<rect x="8" y="15" width="1" height="1" fill="#000000" />
<rect x="9" y="15" width="1" height="1" fill="#000000" />
<rect x="10" y="15" width="1" height="1" fill="#000000" />
<rect x="11" y="15" width="1" height="1" fill="#000000" />
<rect x="12" y="15" width="1" height="1" fill="#000000" />
<rect x="13" y="15" width="1" height="1" fill="#000000" />
<rect x="14" y="15" width="1" height="1" fill="#000000" />
<rect x="15" y="15" width="1" height="1" fill="#000000" />
<rect x="16" y="15" width="1" height="1" fill="#000000" />
<rect x="17" y="15" width="1" height="1" fill="#000000" />
<rect x="18" y="15" width="1" height="1" fill="#000000" />
<rect x="19" y="15" width="1" height="1" fill="#000000" />
<rect x="20" y="15" width="1" height="1" fill="#000000" />
<rect x="21" y="15" width="1" height="1" fill="#000000" />
<rect x="22" y="15" width="1" height="1" fill="#000000" />
<rect x="23" y="15" width="1" height="1" fill="#000000" />
<rect x="24" y="15" width="1" height="1" fill="#000000" />
<rect x="25" y="15" width="1" height="1" fill="#000000" />
<rect x="26" y="15" width="1" height="1" fill="#000000" />
<rect x="27" y="15" width="1" height="1" fill="#000000" />
<rect x="28" y="15" width="1" height="1" fill="#000000" />
<rect x="29" y="15" width="1" height="1" fill="#000000" />
<rect x="30" y="15" width="1" height="1" fill="#000000" />
<rect x="31" y="15" width="1" height="1" fill="#000000" />
<rect x="32" y="15" width="1" height="1" fill="#000000" />
<rect x="33" y="15" width="1" height="1" fill="#000000" />
<rect x="34" y="15" width="1" height="1" fill="#000000" />
<rect x="35" y="15" width="1" height="1" fill="#000000" />
<rect x="36" y="15" width="1" height="1" fill="#000000" />
<rect x="37" y="15" width="1" height="1" fill="#000000" />
<rect x="38" y="15" width="1" height="1" fill="#000000" />
<rect x="39" y="15" width="1" height="1" fill="#000000" />
<rect x="40" y="15" width="1" height="1" fill="#000000" />
<rect x="41" y="15" width="1" height="1" fill="#000000" />
<rect x="10" y="16" width="1" height="1" fill="#000000" />
<rect x="11" y="16" width="1" height="1" fill="#000000" />
<rect x="12" y="16" width="1" height="1" fill="#000000" />
<rect x="13" y="16" width="1" height="1" fill="#000000" />
<rect x="14" y="16" width="1" height="1" fill="#000000" />
<rect x="15" y="16" width="1" height="1" fill="#000000" />
<rect x="16" y="16" width="1" height="1" fill="#000000" />
<rect x="17" y="16" width="1" height="1" fill="#000000" />
<rect x="18" y="16" width="1" height="1" fill="#000000" />
<rect x="19" y="16" width="1" height="1" fill="#000000" />
<rect x="20" y="16" width="1" height="1" fill="#000000" />
<rect x="21" y="16" width="1" height="1" fill="#000000" />
<rect x="22" y="16" width="1" height="1" fill="#000000" />
<rect x="23" y="16" width="1" height="1" fill="#000000" />
<rect x="24" y="16" width="1" height="1" fill="#000000" />
<rect x="25" y="16" width="1" height="1" fill="#000000" />
<rect x="26" y="16" width="1" height="1" fill="#000000" />
<rect x="27" y="16" width="1" height="1" fill="#000000" />
<rect x="28" y="16" width="1" height="1" fill="#000000" />
<rect x="29" y="16" width="1" height="1" fill="#000000" />
<rect x="30" y="16" width="1" height="1" fill="#000000" />
<rect x="31" y="16" width="1" height="1" fill="#000000" />
<rect x="32" y="16" width="1" height="1" fill="#000000" />
<rect x="33" y="16" width="1" height="1" fill="#000000" />
<rect x="34" y="16" width="1" height="1" fill="#000000" />
<rect x="35" y="16" width="1" height="1" fill="#000000" />
<rect x="36" y="16" width="1" height="1" fill="#000000" />
<rect x="37" y="16" width="1" height="1" fill="#000000" />
<rect x="38" y="16" width="1" height="1" fill="#000000" />
<rect x="39" y="16" width="1" height="1" fill="#000000" />
<rect x="10" y="17" width="1" height="1" fill="#000000" />
<rect x="11" y="17" width="1" height="1" fill="#000000" />
<rect x="12" y="17" width="1" height="1" fill="#000000" />
<rect x="13" y="17" width="1" height="1" fill="#000000" />
<rect x="14" y="17" width="1" height="1" fill="#000000" />
<rect x="15" y="17" width="1" height="1" fill="#000000" />
<rect x="16" y="17" width="1" height="1" fill="#000000" />
<rect x="17" y="17" width="1" height="1" fill="#000000" />
<rect x="18" y="17" width="1" height="1" fill="#000000" />
<rect x="19" y="17" width="1" height="1" fill="#000000" />
<rect x="20" y="17" width="1" height="1" fill="#000000" />
<rect x="21" y="17" width="1" height="1" fill="#000000" />
<rect x="22" y="17" width="1" height="1" fill="#000000" />
<rect x="23" y="17" width="1" height="1" fill="#000000" />
<rect x="24" y="17" width="1" height="1" fill="#000000" />
<rect x="25" y="17" width="1" height="1" fill="#000000" />
<rect x="26" y="17" width="1" height="1" fill="#000000" />
<rect x="27" y="17" width="1" height="1" fill="#000000" />
<rect x="28" y="17" width="1" height="1" fill="#000000" />
<rect x="29" y="17" width="1" height="1" fill="#000000" />
<rect x="30" y="17" width="1" height="1" fill="#000000" />
<rect x="31" y="17" width="1" height="1" fill="#000000" />
<rect x="32" y="17" width="1" height="1" fill="#000000" />
<rect x="33" y="17" width="1" height="1" fill="#000000" />
<rect x="34" y="17" width="1" height="1" fill="#000000" />
<rect x="35" y="17" width="1" height="1" fill="#000000" />
<rect x="36" y="17" width="1" height="1" fill="#000000" />
<rect x="37" y="17" width="1" height="1" fill="#000000" />
<rect x="38" y="17" width="1" height="1" fill="#000000" />
<rect x="39" y="17" width="1" height="1" fill="#000000" />
<rect x="10" y="22" width="1" height="1" fill="#000000" />
<rect x="11" y="22" width="1" height="1" fill="#000000" />
<rect x="12" y="22" width="1" height="1" fill="#000000" />
<rect x="13" y="22" width="1" height="1" fill="#000000" />
<rect x="14" y="22" width="1" height="1" fill="#000000" />
<rect x="15" y="22" width="1" height="1" fill="#000000" />
<rect x="16" y="22" width="1" height="1" fill="#000000" />
<rect x="17" y="22" width="1" height="1" fill="#000000" />
<rect x="18" y="22" width="1" height="1" fill="#000000" />
<rect x="19" y="22" width="1" height="1" fill="#000000" />
<rect x="20" y="22" width="1" height="1" fill="#000000" />
<rect x="21" y="22" width="1" height="1" fill="#000000" />
<rect x="22" y="22" width="1" height="1" fill="#000000" />
<rect x="23" y="22" width="1" height="1" fill="#000000" />
<rect x="24" y="22" width="1" height="1" fill="#000000" />
<rect x="25" y="22" width="1" height="1" fill="#000000" />
<rect x="26" y="22" width="1" height="1" fill="#000000" />
<rect x="27" y="22" width="1" height="1" fill="#000000" />
<rect x="28" y="22" width="1" height="1" fill="#000000" />
<rect x="29" y="22" width="1" height="1" fill="#000000" />
<rect x="30" y="22" width="1" height="1" fill="#000000" />
<rect x="31" y="22" width="1" height="1" fill="#000000" />
<rect x="32" y="22" width="1" height="1" fill="#000000" />
<rect x="33" y="22" width="1" height="1" fill="#000000" />
<rect x="34" y="22" width="1" height="1" fill="#000000" />
<rect x="35" y="22" width="1" height="1" fill="#000000" />
<rect x="36" y="22" width="1" height="1" fill="#000000" />
<rect x="37" y="22" width="1" height="1" fill="#000000" />
<rect x="38" y="22" width="1" height="1" fill="#000000" />
<rect x="39" y="22" width="1" height="1" fill="#000000" />
<rect x="10" y="23" width="1" height="1" fill="#000000" />
<rect x="11" y="23" width="1" height="1" fill="#000000" />
<rect x="12" y="23" width="1" height="1" fill="#000000" />
<rect x="13" y="23" width="1" height="1" fill="#000000" />
<rect x="14" y="23" width="1" height="1" fill="#000000" />
<rect x="15" y="23" width="1" height="1" fill="#000000" />
<rect x="16" y="23" width="1" height="1" fill="#000000" />
<rect x="17" y="23" width="1" height="1" fill="#000000" />
<rect x="18" y="23" width="1" height="1" fill="#000000" />
<rect x="19" y="23" width="1" height="1" fill="#000000" />
<rect x="20" y="23" width="1" height="1" fill="#000000" />
<rect x="21" y="23" width="1" height="1" fill="#000000" />
<rect x="22" y="23" width="1" height="1" fill="#000000" />
<rect x="23" y="23" width="1" height="1" fill="#000000" />
<rect x="24" y="23" width="1" height="1" fill="#000000" />
<rect x="25" y="23" width="1" height="1" fill="#000000" />
<rect x="26" y="23" width="1" height="1" fill="#000000" />
<rect x="27" y="23" width="1" height="1" fill="#000000" />
<rect x="28" y="23" width="1" height="1" fill="#000000" />
<rect x="29" y="23" width="1" height="1" fill="#000000" />
<rect x="30" y="23" width="1" height="1" fill="#000000" />
<rect x="31" y="23" width="1" height="1" fill="#000000" />
<rect x="32" y="23" width="1" height="1" fill="#000000" />
<rect x="33" y="23" width="1" height="1" fill="#000000" />
<rect x="34" y="23" width="1" height="1" fill="#000000" />
<rect x="35" y="23" width="1" height="1" fill="#000000" />
<rect x="36" y="23" width="1" height="1" fill="#000000" />
<rect x="37" y="23" width="1" height="1" fill="#000000" />
<rect x="38" y="23" width="1" height="1" fill="#000000" />
<rect x="39" y="23" width="1" height="1" fill="#000000" />
<rect x="8" y="24" width="1" height="1" fill="#000000" />
<rect x="9" y="24" width="1" height="1" fill="#000000" />
<rect x="10" y="24" width="1" height="1" fill="#000000" />
<rect x="11" y="24" width="1" height="1" fill="#000000" />
<rect x="12" y="24" width="1" height="1" fill="#000000" />
<rect x="13" y="24" width="1" height="1" fill="#000000" />
<rect x="14" y="24" width="1" height="1" fill="#000000" />
<rect x="15" y="24" width="1" height="1" fill="#000000" />
<rect x="16" y="24" width="1" height="1" fill="#000000" />
<rect x="17" y="24" width="1" height="1" fill="#000000" />
<rect x="18" y="24" width="1" height="1" fill="#000000" />
<rect x="19" y="24" width="1" height="1" fill="#000000" />
<rect x="20" y="24" width="1" height="1" fill="#000000" />
<rect x="21" y="24" width="1" height="1" fill="#000000" />
<rect x="22" y="24" width="1" height="1" fill="#000000" />
<rect x="23" y="24" width="1" height="1" fill="#000000" />
<rect x="24" y="24" width="1" height="1" fill="#000000" />
<rect x="25" y="24" width="1" height="1" fill="#000000" />
<rect x="26" y="24" width="1" height="1" fill="#000000" />
<rect x="27" y="24" width="1" height="1" fill="#000000" />
<rect x="28" y="24" width="1" height="1" fill="#000000" />
<rect x="29" y="24" width="1" height="1" fill="#000000" />
<rect x="30" y="24" width="1" height="1" fill="#000000" />
<rect x="31" y="24" width="1" height="1" fill="#000000" />
<rect x="32" y="24" width="1" height="1" fill="#000000" />
<rect x="33" y="24" width="1" height="1" fill="#000000" />
<rect x="34" y="24" width="1" height="1" fill="#000000" />
<rect x="35" y="24" width="1" height="1" fill="#000000" />
<rect x="36" y="24" width="1" height="1" fill="#000000" />
<rect x="37" y="24" width="1" height="1" fill="#000000" />
<rect x="38" y="24" width="1" height="1" fill="#000000" />
<rect x="39" y="24" width="1" height="1" fill="#000000" />
<rect x="40" y="24" width="1" height="1" fill="#000000" />
<rect x="41" y="24" width="1" height="1" fill="#000000" />
<rect x="8" y="25" width="1" height="1" fill="#000000" />
<rect x="9" y="25" width="1" height="1" fill="#000000" />
<rect x="10" y="25" width="1" height="1" fill="#000000" />
<rect x="11" y="25" width="1" height="1" fill="#000000" />
<rect x="12" y="25" width="1" height="1" fill="#000000" />
<rect x="13" y="25" width="1" height="1" fill="#000000" />
<rect x="14" y="25" width="1" height="1" fill="#000000" />
<rect x="15" y="25" width="1" height="1" fill="#000000" />
<rect x="16" y="25" width="1" height="1" fill="#000000" />
<rect x="17" y="25" width="1" height="1" fill="#000000" />
<rect x="18" y="25" width="1" height="1" fill="#000000" />
<rect x="19" y="25" width="1" height="1" fill="#000000" />
<rect x="20" y="25" width="1" height="1" fill="#000000" />
<rect x="21" y="25" width="1" height="1" fill="#000000" />
<rect x="22" y="25" width="1" height="1" fill="#000000" />
<rect x="23" y="25" width="1" height="1" fill="#000000" />
<rect x="24" y="25" width="1" height="1" fill="#000000" />
<rect x="25" y="25" width="1" height="1" fill="#000000" />
<rect x="26" y="25" width="1" height="1" fill="#000000" />
<rect x="27" y="25" width="1" height="1" fill="#000000" />
<rect x="28" y="25" width="1" height="1" fill="#000000" />
<rect x="29" y="25" width="1" height="1" fill="#000000" />
<rect x="30" y="25" width="1" height="1" fill="#000000" />
<rect x="31" y="25" width="1" height="1" fill="#000000" />
<rect x="32" y="25" width="1" height="1" fill="#000000" />
<rect x="33" y="25" width="1" height="1" fill="#000000" />
<rect x="34" y="25" width="1" height="1" fill="#000000" />
<rect x="35" y="25" width="1" height="1" fill="#000000" />
<rect x="36" y="25" width="1" height="1" fill="#000000" />
<rect x="37" y="25" width="1" height="1" fill="#000000" />
<rect x="38" y="25" width="1" height="1" fill="#000000" />
<rect x="39" y="25" width="1" height="1" fill="#000000" />
<rect x="40" y="25" width="1" height="1" fill="#000000" />
<rect x="41" y="25" width="1" height="1" fill="#000000" />
<rect x="10" y="26" width="1" height="1" fill="#000000" />
<rect x="11" y="26" width="1" height="1" fill="#000000" />
<rect x="12" y="26" width="1" height="1" fill="#000000" />
<rect x="13" y="26" width="1" height="1" fill="#000000" />
<rect x="14" y="26" width="1" height="1" fill="#000000" />
<rect x="15" y="26" width="1" height="1" fill="#000000" />
<rect x="16" y="26" width="1" height="1" fill="#000000" />
<rect x="17" y="26" width="1" height="1" fill="#000000" />
<rect x="18" y="26" width="1" height="1" fill="#000000" />
<rect x="19" y="26" width="1" height="1" fill="#000000" />
<rect x="20" y="26" width="1" height="1" fill="#000000" />
<rect x="21" y="26" width="1" height="1" fill="#000000" />
<rect x="22" y="26" width="1" height="1" fill="#000000" />
<rect x="23" y="26" width="1" height="1" fill="#000000" />
<rect x="24" y="26" width="1" height="1" fill="#000000" />
<rect x="25" y="26" width="1" height="1" fill="#000000" />
<rect x="26" y="26" width="1" height="1" fill="#000000" />
<rect x="27" y="26" width="1" height="1" fill="#000000" />
<rect x="28" y="26" width="1" height="1" fill="#000000" />
<rect x="29" y="26" width="1" height="1" fill="#000000" />
<rect x="30" y="26" width="1" height="1" fill="#000000" />
<rect x="31" y="26" width="1" height="1" fill="#000000" />
<rect x="32" y="26" width="1" height="1" fill="#000000" />
<rect x="33" y="26" width="1" height="1" fill="#000000" />
<rect x="34" y="26" width="1" height="1" fill="#000000" />
<rect x="35" y="26" width="1" height="1" fill="#000000" />
<rect x="36" y="26" width="1" height="1" fill="#000000" />
<rect x="37" y="26" width="1" height="1" fill="#000000" />
<rect x="38" y="26" width="1" height="1" fill="#000000" />
<rect x="39" y="26" width="1" height="1" fill="#000000" />
<rect x="10" y="27" width="1" height="1" fill="#000000" />
<rect x="11" y="27" width="1" height="1" fill="#000000" />
<rect x="12" y="27" width="1" height="1" fill="#000000" />
<rect x="13" y="27" width="1" height="1" fill="#000000" />
<rect x="14" y="27" width="1" height="1" fill="#000000" />
<rect x="15" y="27" width="1" height="1" fill="#000000" />
<rect x="16" y="27" width="1" height="1" fill="#000000" />
<rect x="17" y="27" width="1" height="1" fill="#000000" />
<rect x="18" y="27" width="1" height="1" fill="#000000" />
<rect x="19" y="27" width="1" height="1" fill="#000000" />
<rect x="20" y="27" width="1" height="1" fill="#000000" />
<rect x="21" y="27" width="1" height="1" fill="#000000" />
<rect x="22" y="27" width="1" height="1" fill="#000000" />
<rect x="23" y="27" width="1" height="1" fill="#000000" />
<rect x="24" y="27" width="1" height="1" fill="#000000" />
<rect x="25" y="27" width="1" height="1" fill="#000000" />
<rect x="26" y="27" width="1" height="1" fill="#000000" />
<rect x="27" y="27" width="1" height="1" fill="#000000" />
<rect x="28" y="27" width="1" height="1" fill="#000000" />
<rect x="29" y="27" width="1" height="1" fill="#000000" />
<rect x="30" y="27" width="1" height="1" fill="#000000" />
<rect x="31" y="27" width="1" height="1" fill="#000000" />
<rect x="32" y="27" width="1" height="1" fill="#000000" />
<rect x="33" y="27" width="1" height="1" fill="#000000" />
<rect x="34" y="27" width="1" height="1" fill="#000000" />
<rect x="35" y="27" width="1" height="1" fill="#000000" />
<rect x="36" y="27" width="1" height="1" fill="#000000" />
<rect x="37" y="27" width="1" height="1" fill="#000000" />
<rect x="38" y="27" width="1" height="1" fill="#000000" />
<rect x="39" y="27" width="1" height="1" fill="#000000" />
<rect x="10" y="32" width="1" height="1" fill="#000000" />
<rect x="11" y="32" width="1" height="1" fill="#000000" />
<rect x="12" y="32" width="1" height="1" fill="#000000" />
<rect x="13" y="32" width="1" height="1" fill="#000000" />
<rect x="14" y="32" width="1" height="1" fill="#000000" />
<rect x="15" y="32" width="1" height="1" fill="#000000" />
<rect x="16" y="32" width="1" height="1" fill="#000000" />
<rect x="17" y="32" width="1" height="1" fill="#000000" />
<rect x="18" y="32" width="1" height="1" fill="#000000" />
<rect x="19" y="32" width="1" height="1" fill="#000000" />
<rect x="20" y="32" width="1" height="1" fill="#000000" />
<rect x="21" y="32" width="1" height="1" fill="#000000" />
<rect x="22" y="32" width="1" height="1" fill="#000000" />
<rect x="23" y="32" width="1" height="1" fill="#000000" />
<rect x="24" y="32" width="1" height="1" fill="#000000" />
<rect x="25" y="32" width="1" height="1" fill="#000000" />
<rect x="26" y="32" width="1" height="1" fill="#000000" />
<rect x="27" y="32" width="1" height="1" fill="#000000" />
<rect x="28" y="32" width="1" height="1" fill="#000000" />
<rect x="29" y="32" width="1" height="1" fill="#000000" />
<rect x="30" y="32" width="1" height="1" fill="#000000" />
<rect x="31" y="32" width="1" height="1" fill="#000000" />
<rect x="32" y="32" width="1" height="1" fill="#000000" />
<rect x="33" y="32" width="1" height="1" fill="#000000" />
<rect x="34" y="32" width="1" height="1" fill="#000000" />
<rect x="35" y="32" width="1" height="1" fill="#000000" />
<rect x="36" y="32" width="1" height="1" fill="#000000" />
<rect x="37" y="32" width="1" height="1" fill="#000000" />
<rect x="38" y="32" width="1" height="1" fill="#000000" />
<rect x="39" y="32" width="1" height="1" fill="#000000" />
<rect x="10" y="33" width="1" height="1" fill="#000000" />
<rect x="11" y="33" width="1" height="1" fill="#000000" />
<rect x="12" y="33" width="1" height="1" fill="#000000" />
<rect x="13" y="33" width="1" height="1" fill="#000000" />
<rect x="14" y="33" width="1" height="1" fill="#000000" />
<rect x="15" y="33" width="1" height="1" fill="#000000" />
<rect x="16" y="33" width="1" height="1" fill="#000000" />
<rect x="17" y="33" width="1" height="1" fill="#000000" />
<rect x="18" y="33" width="1" height="1" fill="#000000" />
<rect x="19" y="33" width="1" height="1" fill="#000000" />
<rect x="20" y="33" width="1" height="1" fill="#000000" />
<rect x="21" y="33" width="1" height="1" fill="#000000" />
<rect x="22" y="33" width="1" height="1" fill="#000000" />
<rect x="23" y="33" width="1" height="1" fill="#000000" />
<rect x="24" y="33" width="1" height="1" fill="#000000" />
<rect x="25" y="33" width="1" height="1" fill="#000000" />
<rect x="26" y="33" width="1" height="1" fill="#000000" />
<rect x="27" y="33" width="1" height="1" fill="#000000" />
<rect x="28" y="33" width="1" height="1" fill="#000000" />
<rect x="29" y="33" width="1" height="1" fill="#000000" />
<rect x="30" y="33" width="1" height="1" fill="#000000" />
<rect x="31" y="33" width="1" height="1" fill="#000000" />
<rect x="32" y="33" width="1" height="1" fill="#000000" />
<rect x="33" y="33" width="1" height="1" fill="#000000" />
<rect x="34" y="33" width="1" height="1" fill="#000000" />
<rect x="35" y="33" width="1" height="1" fill="#000000" />
<rect x="36" y="33" width="1" height="1" fill="#000000" />
<rect x="37" y="33" width="1" height="1" fill="#000000" />
<rect x="38" y="33" width="1" height="1" fill="#000000" />
<rect x="39" y="33" width="1" height="1" fill="#000000" />
<rect x="8" y="34" width="1" height="1" fill="#000000" />
<rect x="9" y="34" width="1" height="1" fill="#000000" />
<rect x="10" y="34" width="1" height="1" fill="#000000" />
<rect x="11" y="34" width="1" height="1" fill="#000000" />
<rect x="12" y="34" width="1" height="1" fill="#000000" />
<rect x="13" y="34" width="1" height="1" fill="#000000" />
<rect x="14" y="34" width="1" height="1" fill="#000000" />
<rect x="15" y="34" width="1" height="1" fill="#000000" />
<rect x="16" y="34" width="1" height="1" fill="#000000" />
<rect x="17" y="34" width="1" height="1" fill="#000000" />
<rect x="18" y="34" width="1" height="1" fill="#000000" />
<rect x="19" y="34" width="1" height="1" fill="#000000" />
<rect x="20" y="34" width="1" height="1" fill="#000000" />
<rect x="21" y="34" width="1" height="1" fill="#000000" />
<rect x="22" y="34" width="1" height="1" fill="#000000" />
<rect x="23" y="34" width="1" height="1" fill="#000000" />
<rect x="24" y="34" width="1" height="1" fill="#000000" />
<rect x="25" y="34" width="1" height="1" fill="#000000" />
<rect x="26" y="34" width="1" height="1" fill="#000000" />
<rect x="27" y="34" width="1" height="1" fill="#000000" />
<rect x="28" y="34" width="1" height="1" fill="#000000" />
<rect x="29" y="34" width="1" height="1" fill="#000000" />
<rect x="30" y="34" width="1" height="1" fill="#000000" />
<rect x="31" y="34" width="1" height="1" fill="#000000" />
<rect x="32" y="34" width="1" height="1" fill="#000000" />
<rect x="33" y="34" width="1" height="1" fill="#000000" />
<rect x="34" y="34" width="1" height="1" fill="#000000" />
<rect x="35" y="34" width="1" height="1" fill="#000000" />
<rect x="36" y="34" width="1" height="1" fill="#000000" />
<rect x="37" y="34" width="1" height="1" fill="#000000" />
<rect x="38" y="34" width="1" height="1" fill="#000000" />
<rect x="39" y="34" width="1" height="1" fill="#000000" />
<rect x="40" y="34" width="1" height="1" fill="#000000" />
<rect x="41" y="34" width="1" height="1" fill="#000000" />
<rect x="8" y="35" width="1" height="1" fill="#000000" />
<rect x="9" y="35" width="1" height="1" fill="#000000" />
<rect x="10" y="35" width="1" height="1" fill="#000000" />
<rect x="11" y="35" width="1" height="1" fill="#000000" />
<rect x="12" y="35" width="1" height="1" fill="#000000" />
<rect x="13" y="35" width="1" height="1" fill="#000000" />
<rect x="14" y="35" width="1" height="1" fill="#000000" />
<rect x="15" y="35" width="1" height="1" fill="#000000" />
<rect x="16" y="35" width="1" height="1" fill="#000000" />
<rect x="17" y="35" width="1" height="1" fill="#000000" />
<rect x="18" y="35" width="1" height="1" fill="#000000" />
<rect x="19" y="35" width="1" height="1" fill="#000000" />
<rect x="20" y="35" width="1" height="1" fill="#000000" />
<rect x="21" y="35" width="1" height="1" fill="#000000" />
<rect x="22" y="35" width="1" height="1" fill="#000000" />
<rect x="23" y="35" width="1" height="1" fill="#000000" />
<rect x="24" y="35" width="1" height="1" fill="#000000" />
<rect x="25" y="35" width="1" height="1" fill="#000000" />
<rect x="26" y="35" width="1" height="1" fill="#000000" />
<rect x="27" y="35" width="1" height="1" fill="#000000" />
<rect x="28" y="35" width="1" height="1" fill="#000000" />
<rect x="29" y="35" width="1" height="1" fill="#000000" />
<rect x="30" y="35" width="1" height="1" fill="#000000" />
<rect x="31" y="35" width="1" height="1" fill="#000000" />
<rect x="32" y="35" width="1" height="1" fill="#000000" />
<rect x="33" y="35" width="1" height="1" fill="#000000" />
<rect x="34" y="35" width="1" height="1" fill="#000000" />
<rect x="35" y="35" width="1" height="1" fill="#000000" />
<rect x="36" y="35" width="1" height="1" fill="#000000" />
<rect x="37" y="35" width="1" height="1" fill="#000000" />
<rect x="38" y="35" width="1" height="1" fill="#000000" />
<rect x="39" y="35" width="1" height="1" fill="#000000" />
<rect x="40" y="35" width="1" height="1" fill="#000000" />
<rect x="41" y="35" width="1" height="1" fill="#000000" />
<rect x="10" y="36" width="1" height="1" fill="#000000" />
<rect x="11" y="36" width="1" height="1" fill="#000000" />
<rect x="12" y="36" width="1" height="1" fill="#000000" />
<rect x="13" y="36" width="1" height="1" fill="#000000" />
<rect x="14" y="36" width="1" height="1" fill="#000000" />
<rect x="15" y="36" width="1" height="1" fill="#000000" />
<rect x="16" y="36" width="1" height="1" fill="#000000" />
<rect x="17" y="36" width="1" height="1" fill="#000000" />
<rect x="18" y="36" width="1" height="1" fill="#000000" />
<rect x="19" y="36" width="1" height="1" fill="#000000" />
<rect x="20" y="36" width="1" height="1" fill="#000000" />
<rect x="21" y="36" width="1" height="1" fill="#000000" />
<rect x="22" y="36" width="1" height="1" fill="#000000" />
<rect x="23" y="36" width="1" height="1" fill="#000000" />
<rect x="24" y="36" width="1" height="1" fill="#000000" />
<rect x="25" y="36" width="1" height="1" fill="#000000" />
<rect x="26" y="36" width="1" height="1" fill="#000000" />
<rect x="27" y="36" width="1" height="1" fill="#000000" />
<rect x="28" y="36" width="1" height="1" fill="#000000" />
<rect x="29" y="36" width="1" height="1" fill="#000000" />
<rect x="30" y="36" width="1" height="1" fill="#000000" />
<rect x="31" y="36" width="1" height="1" fill="#000000" />
<rect x="32" y="36" width="1" height="1" fill="#000000" />
<rect x="33" y="36" width="1" height="1" fill="#000000" />
<rect x="34" y="36" width="1" height="1" fill="#000000" />
<rect x="35" y="36" width="1" height="1" fill="#000000" />
<rect x="36" y="36" width="1" height="1" fill="#000000" />
<rect x="37" y="36" width="1" height="1" fill="#000000" />
<rect x="38" y="36" width="1" height="1" fill="#000000" />
<rect x="39" y="36" width="1" height="1" fill="#000000" />
<rect x="10" y="37" width="1" height="1" fill="#000000" />
<rect x="11" y="37" width="1" height="1" fill="#000000" />
<rect x="12" y="37" width="1" height="1" fill="#000000" />
<rect x="13" y="37" width="1" height="1" fill="#000000" />
<rect x="14" y="37" width="1" height="1" fill="#000000" />
<rect x="15" y="37" width="1" height="1" fill="#000000" />
<rect x="16" y="37" width="1" height="1" fill="#000000" />
<rect x="17" y="37" width="1" height="1" fill="#000000" />
<rect x="18" y="37" width="1" height="1" fill="#000000" />
<rect x="19" y="37" width="1" height="1" fill="#000000" />
<rect x="20" y="37" width="1" height="1" fill="#000000" />
<rect x="21" y="37" width="1" height="1" fill="#000000" />
<rect x="22" y="37" width="1" height="1" fill="#000000" />
<rect x="23" y="37" width="1" height="1" fill="#000000" />
<rect x="24" y="37" width="1" height="1" fill="#000000" />
<rect x="25" y="37" width="1" height="1" fill="#000000" />
<rect x="26" y="37" width="1" height="1" fill="#000000" />
<rect x="27" y="37" width="1" height="1" fill="#000000" />
<rect x="28" y="37" width="1" height="1" fill="#000000" />
<rect x="29" y="37" width="1" height="1" fill="#000000" />
<rect x="30" y="37" width="1" height="1" fill="#000000" />
<rect x="31" y="37" width="1" height="1" fill="#000000" />
<rect x="32" y="37" width="1" height="1" fill="#000000" />
<rect x="33" y="37" width="1" height="1" fill="#000000" />
<rect x="34" y="37" width="1" height="1" fill="#000000" />
<rect x="35" y="37" width="1" height="1" fill="#000000" />
<rect x="36" y="37" width="1" height="1" fill="#000000" />
<rect x="37" y="37" width="1" height="1" fill="#000000" />
<rect x="38" y="37" width="1" height="1" fill="#000000" />
<rect x="39" y="37" width="1" height="1" fill="#000000" />
</svg>