<?xml version="1.0" encoding="UTF-8" ?>
<svg version="1.1" width="50" height="46" xmlns="http://www.w3.org/2000/svg" shape-rendering="crispEdges">
<rect x="30" y="4" width="1" height="1" fill="#000000" />
<rect x="31" y="4" width="1" height="1" fill="#000000" />
<rect x="32" y="4" width="1" height="1" fill="#000000" />
<rect x="33" y="4" width="1" height="1" fill="#000000" />
<rect x="34" y="4" width="1" height="1" fill="#000000" />
<rect x="35" y="4" width="1" height="1" fill="#000000" />
<rect x="30" y="5" width="1" height="1" fill="#000000" />
<rect x="31" y="5" width="1" height="1" fill="#000000" />
<rect x="32" y="5" width="1" height="1" fill="#000000" />
<rect x="33" y="5" width="1" height="1" fill="#000000" />
<rect x="34" y="5" width="1" height="1" fill="#000000" />
<rect x="35" y="5" width="1" height="1" fill="#000000" />
<rect x="28" y="6" width="1" height="1" fill="#000000" />
<rect x="29" y="6" width="1" height="1" fill="#000000" />
<rect x="36" y="6" width="1" height="1" fill="#000000" />
<rect x="37" y="6" width="1" height="1" fill="#000000" />
<rect x="28" y="7" width="1" height="1" fill="#000000" />
<rect x="29" y="7" width="1" height="1" fill="#000000" />
<rect x="36" y="7" width="1" height="1" fill="#000000" />
<rect x="37" y="7" width="1" height="1" fill="#000000" />
<rect x="16" y="8" width="1" height="1" fill="#000000" />
<rect x="17" y="8" width="1" height="1" fill="#000000" />
<rect x="18" y="8" width="1" height="1" fill="#000000" />
<rect x="19" y="8" width="1" height="1" fill="#000000" />
<rect x="20" y="8" width="1" height="1" fill="#000000" />
<rect x="21" y="8" width="1" height="1" fill="#000000" />
<rect x="26" y="8" width="1" height="1" fill="#000000" />
<rect x="27" y="8" width="1" height="1" fill="#000000" />
<rect x="32" y="8" width="1" height="1" fill="#000000" />
<rect x="33" y="8" width="1" height="1" fill="#000000" />
<rect x="36" y="8" width="1" height="1" fill="#000000" />
<rect x="37" y="8" width="1" height="1" fill="#000000" />
<rect x="16" y="9" width="1" height="1" fill="#000000" />
<rect x="17" y="9" width="1" height="1" fill="#000000" />
<rect x="18" y="9" width="1" height="1" fill="#000000" />
<rect x="19" y="9" width="1" height="1" fill="#000000" />
<rect x="20" y="9" width="1" height="1" fill="#000000" />
<rect x="21" y="9" width="1" height="1" fill="#000000" />
<rect x="26" y="9" width="1" height="1" fill="#000000" />
<rect x="27" y="9" width="1" height="1" fill="#000000" />
<rect x="32" y="9" width="1" height="1" fill="#000000" />
<rect x="33" y="9" width="1" height="1" fill="#000000" />
<rect x="36" y="9" width="1" height="1" fill="#000000" />
<rect x="37" y="9" width="1" height="1" fill="#000000" />
<rect x="14" y="10" width="1" height="1" fill="#000000" />
<rect x="15" y="10" width="1" height="1" fill="#000000" />
<rect x="22" y="10" width="1" height="1" fill="#000000" />
<rect x="23" y="10" width="1" height="1" fill="#000000" />
<rect x="26" y="10" width="1" height="1" fill="#000000" />
<rect x="27" y="10" width="1" height="1" fill="#000000" />
<rect x="30" y="10" width="1" height="1" fill="#000000" />
<rect x="31" y="10" width="1" height="1" fill="#000000" />
<rect x="36" y="10" width="1" height="1" fill="#000000" />
<rect x="37" y="10" width="1" height="1" fill="#000000" />
<rect x="14" y="11" width="1" height="1" fill="#000000" />
<rect x="15" y="11" width="1" height="1" fill="#000000" />
<rect x="22" y="11" width="1" height="1" fill="#000000" />
<rect x="23" y="11" width="1" height="1" fill="#000000" />
<rect x="26" y="11" width="1" height="1" fill="#000000" />
<rect x="27" y="11" width="1" height="1" fill="#000000" />
<rect x="30" y="11" width="1" height="1" fill="#000000" />
<rect x="31" y="11" width="1" height="1" fill="#000000" />
<rect x="36" y="11" width="1" height="1" fill="#000000" />
<rect x="37" y="11" width="1" height="1" fill="#000000" />
<rect x="14" y="12" width="1" height="1" fill="#000000" />
<rect x="15" y="12" width="1" height="1" fill="#000000" />
<rect x="18" y="12" width="1" height="1" fill="#000000" />
<rect x="19" y="12" width="1" height="1" fill="#000000" />
<rect x="24" y="12" width="1" height="1" fill="#000000" />
<rect x="25" y="12" width="1" height="1" fill="#000000" />
<rect x="26" y="12" width="1" height="1" fill="#000000" />
<rect x="27" y="12" width="1" height="1" fill="#000000" />
<rect x="28" y="12" width="1" height="1" fill="#000000" />
<rect x="29" y="12" width="1" height="1" fill="#000000" />
<rect x="34" y="12" width="1" height="1" fill="#000000" />
<rect x="35" y="12" width="1" height="1" fill="#000000" />
<rect x="14" y="13" width="1" height="1" fill="#000000" />
<rect x="15" y="13" width="1" height="1" fill="#000000" />
<rect x="18" y="13" width="1" height="1" fill="#000000" />
<rect x="19" y="13" width="1" height="1" fill="#000000" />
<rect x="24" y="13" width="1" height="1" fill="#000000" />
<rect x="25" y="13" width="1" height="1" fill="#000000" />
<rect x="26" y="13" width="1" height="1" fill="#000000" />
<rect x="27" y="13" width="1" height="1" fill="#000000" />
<rect x="28" y="13" width="1" height="1" fill="#000000" />
<rect x="29" y="13" width="1" height="1" fill="#000000" />
<rect x="34" y="13" width="1" height="1" fill="#000000" />
<rect x="35" y="13" width="1" height="1" fill="#000000" />
<rect x="14" y="14" width="1" height="1" fill="#000000" />
<rect x="15" y="14" width="1" height="1" fill="#000000" />
<rect x="20" y="14" width="1" height="1" fill="#000000" />
<rect x="21" y="14" width="1" height="1" fill="#000000" />
<rect x="24" y="14" width="1" height="1" fill="#000000" />
<rect x="25" y="14" width="1" height="1" fill="#000000" />
<rect x="28" y="14" width="1" height="1" fill="#000000" />
<rect x="29" y="14" width="1" height="1" fill="#000000" />
<rect x="30" y="14" width="1" height="1" fill="#000000" />
<rect x="31" y="14" width="1" height="1" fill="#000000" />
<rect x="32" y="14" width="1" height="1" fill="#000000" />
<rect x="33" y="14" width="1" height="1" fill="#000000" />
<rect x="14" y="15" width="1" height="1" fill="#000000" />
<rect x="15" y="15" width="1" height="1" fill="#000000" />
<rect x="20" y="15" width="1" height="1" fill="#000000" />
<rect x="21" y="15" width="1" height="1" fill="#000000" />
<rect x="24" y="15" width="1" height="1" fill="#000000" />
<rect x="25" y="15" width="1" height="1" fill="#000000" />
<rect x="28" y="15" width="1" height="1" fill="#000000" />
<rect x="29" y="15" width="1" height="1" fill="#000000" />
<rect x="30" y="15" width="1" height="1" fill="#000000" />
<rect x="31" y="15" width="1" height="1" fill="#000000" />
<rect x="32" y="15" width="1" height="1" fill="#000000" />
<rect x="33" y="15" width="1" height="1" fill="#000000" />
<rect x="16" y="16" width="1" height="1" fill="#000000" />
<rect x="17" y="16" width="1" height="1" fill="#000000" />
<rect x="18" y="16" width="1" height="1" fill="#000000" />
<rect x="19" y="16" width="1" height="1" fill="#000000" />
<rect x="22" y="16" width="1" height="1" fill="#000000" />
<rect x="23" y="16" width="1" height="1" fill="#000000" />
<rect x="24" y="16" width="1" height="1" fill="#000000" />
<rect x="25" y="16" width="1" height="1" fill="#000000" />
<rect x="16" y="17" width="1" height="1" fill="#000000" />
<rect x="17" y="17" width="1" height="1" fill="#000000" />
<rect x="18" y="17" width="1" height="1" fill="#000000" />
<rect x="19" y="17" width="1" height="1" fill="#000000" />
<rect x="22" y="17" width="1" height="1" fill="#000000" />
<rect x="23" y="17" width="1" height="1" fill="#000000" />
<rect x="24" y="17" width="1" height="1" fill="#000000" />
<rect x="25" y="17" width="1" height="1" fill="#000000" />
<rect x="20" y="18" width="1" height="1" fill="#000000" />
<rect x="21" y="18" width="1" height="1" fill="#000000" />
<rect x="22" y="18" width="1" height="1" fill="#000000" />
<rect x="23" y="18" width="1" height="1" fill="#000000" />
<rect x="24" y="18" width="1" height="1" fill="#000000" />
<rect x="25" y="18" width="1" height="1" fill="#000000" />
<rect x="26" y="18" width="1" height="1" fill="#000000" />
<rect x="27" y="18" width="1" height="1" fill="#000000" />
<rect x="20" y="19" width="1" height="1" fill="#000000" />
<rect x="21" y="19" width="1" height="1" fill="#000000" />
<rect x="22" y="19" width="1" height="1" fill="#000000" />
<rect x="23" y="19" width="1" height="1" fill="#000000" />
<rect x="24" y="19" width="1" height="1" fill="#000000" />
<rect x="25" y="19" width="1" height="1" fill="#000000" />
<rect x="26" y="19" width="1" height="1" fill="#000000" />
<rect x="27" y="19" width="1" height="1" fill="#000000" />
<rect x="26" y="20" width="1" height="1" fill="#000000" />
<rect x="27" y="20" width="1" height="1" fill="#000000" />
<rect x="26" y="21" width="1" height="1" fill="#000000" />
<rect x="27" y="21" width="1" height="1" fill="#000000" />
<rect x="26" y="22" width="1" height="1" fill="#000000" />
<rect x="27" y="22" width="1" height="1" fill="#000000" />
<rect x="26" y="23" width="1" height="1" fill="#000000" />
<rect x="27" y="23" width="1" height="1" fill="#000000" />
<rect x="24" y="24" width="1" height="1" fill="#000000" />
<rect x="25" y="24" width="1" height="1" fill="#000000" />
<rect x="26" y="24" width="1" height="1" fill="#000000" />
<rect x="27" y="24" width="1" height="1" fill="#000000" />
<rect x="28" y="24" width="1" height="1" fill="#000000" />
<rect x="29" y="24" width="1" height="1" fill="#000000" />
<rect x="24" y="25" width="1" height="1" fill="#000000" />
<rect x="25" y="25" width="1" height="1" fill="#000000" />
<rect x="26" y="25" width="1" height="1" fill="#000000" />
<rect x="27" y="25" width="1" height="1" fill="#000000" />
<rect x="28" y="25" width="1" height="1" fill="#000000" />
<rect x="29" y="25" width="1" height="1" fill="#000000" />
<rect x="12" y="26" width="1" height="1" fill="#000000" />
<rect x="13" y="26" width="1" height="1" fill="#000000" />
<rect x="14" y="26" width="1" height="1" fill="#000000" />
<rect x="15" y="26" width="1" height="1" fill="#000000" />
<rect x="16" y="26" width="1" height="1" fill="#000000" />
<rect x="17" y="26" width="1" height="1" fill="#000000" />
<rect x="18" y="26" width="1" height="1" fill="#000000" />
<rect x="19" y="26" width="1" height="1" fill="#000000" />
<rect x="20" y="26" width="1" height="1" fill="#000000" />
<rect x="21" y="26" width="1" height="1" fill="#000000" />
<rect x="22" y="26" width="1" height="1" fill="#000000" />
<rect x="23" y="26" width="1" height="1" fill="#000000" />
<rect x="24" y="26" width="1" height="1" fill="#000000" />
<rect x="25" y="26" width="1" height="1" fill="#000000" />
<rect x="26" y="26" width="1" height="1" fill="#000000" />
<rect x="27" y="26" width="1" height="1" fill="#000000" />
<rect x="28" y="26" width="1" height="1" fill="#000000" />
<rect x="29" y="26" width="1" height="1" fill="#000000" />
<rect x="30" y="26" width="1" height="1" fill="#000000" />
<rect x="31" y="26" width="1" height="1" fill="#000000" />
<rect x="32" y="26" width="1" height="1" fill="#000000" />
<rect x="33" y="26" width="1" height="1" fill="#000000" />
<rect x="34" y="26" width="1" height="1" fill="#000000" />
<rect x="35" y="26" width="1" height="1" fill="#000000" />
<rect x="36" y="26" width="1" height="1" fill="#000000" />
<rect x="37" y="26" width="1" height="1" fill="#000000" />
<rect x="12" y="27" width="1" height="1" fill="#000000" />
<rect x="13" y="27" width="1" height="1" fill="#000000" />
<rect x="14" y="27" width="1" height="1" fill="#000000" />
<rect x="15" y="27" width="1" height="1" fill="#000000" />
<rect x="16" y="27" width="1" height="1" fill="#000000" />
<rect x="17" y="27" width="1" height="1" fill="#000000" />
<rect x="18" y="27" width="1" height="1" fill="#000000" />
<rect x="19" y="27" width="1" height="1" fill="#000000" />
<rect x="20" y="27" width="1" height="1" fill="#000000" />
<rect x="21" y="27" width="1" height="1" fill="#000000" />
<rect x="22" y="27" width="1" height="1" fill="#000000" />
<rect x="23" y="27" width="1" height="1" fill="#000000" />
<rect x="24" y="27" width="1" height="1" fill="#000000" />
<rect x="25" y="27" width="1" height="1" fill="#000000" />
<rect x="26" y="27" width="1" height="1" fill="#000000" />
<rect x="27" y="27" width="1" height="1" fill="#000000" />
<rect x="28" y="27" width="1" height="1" fill="#000000" />
<rect x="29" y="27" width="1" height="1" fill="#000000" />
<rect x="30" y="27" width="1" height="1" fill="#000000" />
<rect x="31" y="27" width="1" height="1" fill="#000000" />
<rect x="32" y="27" width="1" height="1" fill="#000000" />
<rect x="33" y="27" width="1" height="1" fill="#000000" />
<rect x="34" y="27" width="1" height="1" fill="#000000" />
<rect x="35" y="27" width="1" height="1" fill="#000000" />
<rect x="36" y="27" width="1" height="1" fill="#000000" />
<rect x="37" y="27" width="1" height="1" fill="#000000" />
<rect x="10" y="28" width="1" height="1" fill="#000000" />
<rect x="11" y="28" width="1" height="1" fill="#000000" />
<rect x="38" y="28" width="1" height="1" fill="#000000" />
<rect x="39" y="28" width="1" height="1" fill="#000000" />
<rect x="10" y="29" width="1" height="1" fill="#000000" />
<rect x="11" y="29" width="1" height="1" fill="#000000" />
<rect x="38" y="29" width="1" height="1" fill="#000000" />
<rect x="39" y="29" width="1" height="1" fill="#000000" />
<rect x="12" y="30" width="1" height="1" fill="#000000" />
<rect x="13" y="30" width="1" height="1" fill="#000000" />
<rect x="14" y="30" width="1" height="1" fill="#000000" />
<rect x="15" y="30" width="1" height="1" fill="#000000" />
<rect x="16" y="30" width="1" height="1" fill="#000000" />
<rect x="17" y="30" width="1" height="1" fill="#000000" />
<rect x="18" y="30" width="1" height="1" fill="#000000" />
<rect x="19" y="30" width="1" height="1" fill="#000000" />
<rect x="20" y="30" width="1" height="1" fill="#000000" />
<rect x="21" y="30" width="1" height="1" fill="#000000" />
<rect x="22" y="30" width="1" height="1" fill="#000000" />
<rect x="23" y="30" width="1" height="1" fill="#000000" />
<rect x="24" y="30" width="1" height="1" fill="#000000" />
<rect x="25" y="30" width="1" height="1" fill="#000000" />
<rect x="26" y="30" width="1" height="1" fill="#000000" />
<rect x="27" y="30" width="1" height="1" fill="#000000" />
<rect x="28" y="30" width="1" height="1" fill="#000000" />
<rect x="29" y="30" width="1" height="1" fill="#000000" />
<rect x="30" y="30" width="1" height="1" fill="#000000" />
<rect x="31" y="30" width="1" height="1" fill="#000000" />
<rect x="32" y="30" width="1" height="1" fill="#000000" />
<rect x="33" y="30" width="1" height="1" fill="#000000" />
<rect x="34" y="30" width="1" height="1" fill="#000000" />
<rect x="35" y="30" width="1" height="1" fill="#000000" />
<rect x="36" y="30" width="1" height="1" fill="#000000" />
<rect x="37" y="30" width="1" height="1" fill="#000000" />
<rect x="12" y="31" width="1" height="1" fill="#000000" />
<rect x="13" y="31" width="1" height="1" fill="#000000" />
<rect x="14" y="31" width="1" height="1" fill="#000000" />
<rect x="15" y="31" width="1" height="1" fill="#000000" />
<rect x="16" y="31" width="1" height="1" fill="#000000" />
<rect x="17" y="31" width="1" height="1" fill="#000000" />
<rect x="18" y="31" width="1" height="1" fill="#000000" />
<rect x="19" y="31" width="1" height="1" fill="#000000" />
<rect x="20" y="31" width="1" height="1" fill="#000000" />
<rect x="21" y="31" width="1" height="1" fill="#000000" />
<rect x="22" y="31" width="1" height="1" fill="#000000" />
<rect x="23" y="31" width="1" height="1" fill="#000000" />
<rect x="24" y="31" width="1" height="1" fill="#000000" />
<rect x="25" y="31" width="1" height="1" fill="#000000" />
<rect x="26" y="31" width="1" height="1" fill="#000000" />
<rect x="27" y="31" width="1" height="1" fill="#000000" />
<rect x="28" y="31" width="1" height="1" fill="#000000" />
<rect x="29" y="31" width="1" height="1" fill="#000000" />
<rect x="30" y="31" width="1" height="1" fill="#000000" />
<rect x="31" y="31" width="1" height="1" fill="#000000" />
<rect x="32" y="31" width="1" height="1" fill="#000000" />
<rect x="33" y="31" width="1" height="1" fill="#000000" />
<rect x="34" y="31" width="1" height="1" fill="#000000" />
<rect x="35" y="31" width="1" height="1" fill="#000000" />
<rect x="36" y="31" width="1" height="1" fill="#000000" />
<rect x="37" y="31" width="1" height="1" fill="#000000" />
<rect x="14" y="32" width="1" height="1" fill="#000000" />
<rect x="15" y="32" width="1" height="1" fill="#000000" />
<rect x="34" y="32" width="1" height="1" fill="#000000" />
<rect x="35" y="32" width="1" height="1" fill="#000000" />
<rect x="14" y="33" width="1" height="1" fill="#000000" />
<rect x="15" y="33" width="1" height="1" fill="#000000" />
<rect x="34" y="33" width="1" height="1" fill="#000000" />
<rect x="35" y="33" width="1" height="1" fill="#000000" />
<rect x="14" y="34" width="1" height="1" fill="#000000" />
<rect x="15" y="34" width="1" height="1" fill="#000000" />
<rect x="34" y="34" width="1" height="1" fill="#000000" />
<rect x="35" y="34" width="1" height="1" fill="#000000" />
<rect x="14" y="35" width="1" height="1" fill="#000000" />
<rect x="15" y="35" width="1" height="1" fill="#000000" />
<rect x="34" y="35" width="1" height="1" fill="#000000" />
<rect x="35" y="35" width="1" height="1" fill="#000000" />
<rect x="14" y="36" width="1" height="1" fill="#000000" />
<rect x="15" y="36" width="1" height="1" fill="#000000" />
<rect x="34" y="36" width="1" height="1" fill="#000000" />
<rect x="35" y="36" width="1" height="1" fill="#000000" />
<rect x="14" y="37" width="1" height="1" fill="#000000" />
<rect x="15" y="37" width="1" height="1" fill="#000000" />
<rect x="34" y="37" width="1" height="1" fill="#000000" />
<rect x="35" y="37" width="1" height="1" fill="#000000" />
<rect x="14" y="38" width="1" height="1" fill="#000000" />
<rect x="15" y="38" width="1" height="1" fill="#000000" />
<rect x="34" y="38" width="1" height="1" fill="#000000" />
<rect x="35" y="38" width="1" height="1" fill="#000000" />
<rect x="14" y="39" width="1" height="1" fill="#000000" />
<rect x="15" y="39" width="1" height="1" fill="#000000" />
<rect x="34" y="39" width="1" height="1" fill="#000000" />
<rect x="35" y="39" width="1" height="1" fill="#000000" />
<rect x="16" y="40" width="1" height="1" fill="#000000" />
<rect x="17" y="40" width="1" height="1" fill="#000000" />
<rect x="32" y="40" width="1" height="1" fill="#000000" />
<rect x="33" y="40" width="1" height="1" fill="#000000" />
<rect x="16" y="41" width="1" height="1" fill="#000000" />
<rect x="17" y="41" width="1" height="1" fill="#000000" />
<rect x="32" y="41" width="1" height="1" fill="#000000" />
<rect x="33" y="41" width="1" height="1" fill="#000000" />
<rect x="18" y="42" width="1" height="1" fill="#000000" />
<rect x="19" y="42" width="1" height="1" fill="#000000" />
<rect x="20" y="42" width="1" height="1" fill="#000000" />
<rect x="21" y="42" width="1" height="1" fill="#000000" />
<rect x="22" y="42" width="1" height="1" fill="#000000" />
<rect x="23" y="42" width="1" height="1" fill="#000000" />
<rect x="24" y="42" width="1" height="1" fill="#000000" />
<rect x="25" y="42" width="1" height="1" fill="#000000" />
<rect x="26" y="42" width="1" height="1" fill="#000000" />
<rect x="27" y="42" width="1" height="1" fill="#000000" />
<rect x="28" y="42" width="1" height="1" fill="#000000" />
<rect x="29" y="42" width="1" height="1" fill="#000000" />
<rect x="30" y="42" width="1" height="1" fill="#000000" />
<rect x="31" y="42" width="1" height="1" fill="#000000" />
<rect x="18" y="43" width="1" height="1" fill="#000000" />
<rect x="19" y="43" width="1" height="1" fill="#000000" />
<rect x="20" y="43" width="1" height="1" fill="#000000" />
<rect x="21" y="43" width="1" height="1" fill="#000000" />
<rect x="22" y="43" width="1" height="1" fill="#000000" />
<rect x="23" y="43" width="1" height="1" fill="#000000" />
<rect x="24" y="43" width="1" height="1" fill="#000000" />
<rect x="25" y="43" width="1" height="1" fill="#000000" />
<rect x="26" y="43" width="1" height="1" fill="#000000" />
<rect x="27" y="43" width="1" height="1" fill="#000000" />
<rect x="28" y="43" width="1" height="1" fill="#000000" />
<rect x="29" y="43" width="1" height="1" fill="#000000" />
<rect x="30" y="43" width="1" height="1" fill="#000000" />
<rect x="31" y="43" width="1" height="1" fill="#000000" />
</svg>