<?xml version="1.0" encoding="UTF-8" ?>
<svg version="1.1" width="50" height="46" xmlns="http://www.w3.org/2000/svg" shape-rendering="crispEdges">
<rect x="24" y="10" width="1" height="1" fill="#000000" />
<rect x="25" y="10" width="1" height="1" fill="#000000" />
<rect x="24" y="11" width="1" height="1" fill="#000000" />
<rect x="25" y="11" width="1" height="1" fill="#000000" />
<rect x="22" y="12" width="1" height="1" fill="#000000" />
<rect x="23" y="12" width="1" height="1" fill="#000000" />
<rect x="26" y="12" width="1" height="1" fill="#000000" />
<rect x="27" y="12" width="1" height="1" fill="#000000" />
<rect x="22" y="13" width="1" height="1" fill="#000000" />
<rect x="23" y="13" width="1" height="1" fill="#000000" />
<rect x="26" y="13" width="1" height="1" fill="#000000" />
<rect x="27" y="13" width="1" height="1" fill="#000000" />
<rect x="20" y="14" width="1" height="1" fill="#000000" />
<rect x="21" y="14" width="1" height="1" fill="#000000" />
<rect x="28" y="14" width="1" height="1" fill="#000000" />
<rect x="29" y="14" width="1" height="1" fill="#000000" />
<rect x="20" y="15" width="1" height="1" fill="#000000" />
<rect x="21" y="15" width="1" height="1" fill="#000000" />
<rect x="28" y="15" width="1" height="1" fill="#000000" />
<rect x="29" y="15" width="1" height="1" fill="#000000" />
<rect x="20" y="16" width="1" height="1" fill="#000000" />
<rect x="21" y="16" width="1" height="1" fill="#000000" />
<rect x="28" y="16" width="1" height="1" fill="#000000" />
<rect x="29" y="16" width="1" height="1" fill="#000000" />
<rect x="20" y="17" width="1" height="1" fill="#000000" />
<rect x="21" y="17" width="1" height="1" fill="#000000" />
<rect x="28" y="17" width="1" height="1" fill="#000000" />
<rect x="29" y="17" width="1" height="1" fill="#000000" />
<rect x="10" y="18" width="1" height="1" fill="#000000" />
<rect x="11" y="18" width="1" height="1" fill="#000000" />
<rect x="18" y="18" width="1" height="1" fill="#000000" />
<rect x="19" y="18" width="1" height="1" fill="#000000" />
<rect x="30" y="18" width="1" height="1" fill="#000000" />
<rect x="31" y="18" width="1" height="1" fill="#000000" />
<rect x="38" y="18" width="1" height="1" fill="#000000" />
<rect x="39" y="18" width="1" height="1" fill="#000000" />
<rect x="10" y="19" width="1" height="1" fill="#000000" />
<rect x="11" y="19" width="1" height="1" fill="#000000" />
<rect x="18" y="19" width="1" height="1" fill="#000000" />
<rect x="19" y="19" width="1" height="1" fill="#000000" />
<rect x="30" y="19" width="1" height="1" fill="#000000" />
<rect x="31" y="19" width="1" height="1" fill="#000000" />
<rect x="38" y="19" width="1" height="1" fill="#000000" />
<rect x="39" y="19" width="1" height="1" fill="#000000" />
<rect x="8" y="20" width="1" height="1" fill="#000000" />
<rect x="9" y="20" width="1" height="1" fill="#000000" />
<rect x="12" y="20" width="1" height="1" fill="#000000" />
<rect x="13" y="20" width="1" height="1" fill="#000000" />
<rect x="16" y="20" width="1" height="1" fill="#000000" />
<rect x="17" y="20" width="1" height="1" fill="#000000" />
<rect x="24" y="20" width="1" height="1" fill="#000000" />
<rect x="25" y="20" width="1" height="1" fill="#000000" />
<rect x="32" y="20" width="1" height="1" fill="#000000" />
<rect x="33" y="20" width="1" height="1" fill="#000000" />
<rect x="36" y="20" width="1" height="1" fill="#000000" />
<rect x="37" y="20" width="1" height="1" fill="#000000" />
<rect x="40" y="20" width="1" height="1" fill="#000000" />
<rect x="41" y="20" width="1" height="1" fill="#000000" />
<rect x="8" y="21" width="1" height="1" fill="#000000" />
<rect x="9" y="21" width="1" height="1" fill="#000000" />
<rect x="12" y="21" width="1" height="1" fill="#000000" />
<rect x="13" y="21" width="1" height="1" fill="#000000" />
<rect x="16" y="21" width="1" height="1" fill="#000000" />
<rect x="17" y="21" width="1" height="1" fill="#000000" />
<rect x="24" y="21" width="1" height="1" fill="#000000" />
<rect x="25" y="21" width="1" height="1" fill="#000000" />
<rect x="32" y="21" width="1" height="1" fill="#000000" />
<rect x="33" y="21" width="1" height="1" fill="#000000" />
<rect x="36" y="21" width="1" height="1" fill="#000000" />
<rect x="37" y="21" width="1" height="1" fill="#000000" />
<rect x="40" y="21" width="1" height="1" fill="#000000" />
<rect x="41" y="21" width="1" height="1" fill="#000000" />
<rect x="8" y="22" width="1" height="1" fill="#000000" />
<rect x="9" y="22" width="1" height="1" fill="#000000" />
<rect x="14" y="22" width="1" height="1" fill="#000000" />
<rect x="15" y="22" width="1" height="1" fill="#000000" />
<rect x="22" y="22" width="1" height="1" fill="#000000" />
<rect x="23" y="22" width="1" height="1" fill="#000000" />
<rect x="26" y="22" width="1" height="1" fill="#000000" />
<rect x="27" y="22" width="1" height="1" fill="#000000" />
<rect x="34" y="22" width="1" height="1" fill="#000000" />
<rect x="35" y="22" width="1" height="1" fill="#000000" />
<rect x="40" y="22" width="1" height="1" fill="#000000" />
<rect x="41" y="22" width="1" height="1" fill="#000000" />
<rect x="8" y="23" width="1" height="1" fill="#000000" />
<rect x="9" y="23" width="1" height="1" fill="#000000" />
<rect x="14" y="23" width="1" height="1" fill="#000000" />
<rect x="15" y="23" width="1" height="1" fill="#000000" />
<rect x="22" y="23" width="1" height="1" fill="#000000" />
<rect x="23" y="23" width="1" height="1" fill="#000000" />
<rect x="26" y="23" width="1" height="1" fill="#000000" />
<rect x="27" y="23" width="1" height="1" fill="#000000" />
<rect x="34" y="23" width="1" height="1" fill="#000000" />
<rect x="35" y="23" width="1" height="1" fill="#000000" />
<rect x="40" y="23" width="1" height="1" fill="#000000" />
<rect x="41" y="23" width="1" height="1" fill="#000000" />
<rect x="8" y="24" width="1" height="1" fill="#000000" />
<rect x="9" y="24" width="1" height="1" fill="#000000" />
<rect x="14" y="24" width="1" height="1" fill="#000000" />
<rect x="15" y="24" width="1" height="1" fill="#000000" />
<rect x="22" y="24" width="1" height="1" fill="#000000" />
<rect x="23" y="24" width="1" height="1" fill="#000000" />
<rect x="26" y="24" width="1" height="1" fill="#000000" />
<rect x="27" y="24" width="1" height="1" fill="#000000" />
<rect x="34" y="24" width="1" height="1" fill="#000000" />
<rect x="35" y="24" width="1" height="1" fill="#000000" />
<rect x="40" y="24" width="1" height="1" fill="#000000" />
<rect x="41" y="24" width="1" height="1" fill="#000000" />
<rect x="8" y="25" width="1" height="1" fill="#000000" />
<rect x="9" y="25" width="1" height="1" fill="#000000" />
<rect x="14" y="25" width="1" height="1" fill="#000000" />
<rect x="15" y="25" width="1" height="1" fill="#000000" />
<rect x="22" y="25" width="1" height="1" fill="#000000" />
<rect x="23" y="25" width="1" height="1" fill="#000000" />
<rect x="26" y="25" width="1" height="1" fill="#000000" />
<rect x="27" y="25" width="1" height="1" fill="#000000" />
<rect x="34" y="25" width="1" height="1" fill="#000000" />
<rect x="35" y="25" width="1" height="1" fill="#000000" />
<rect x="40" y="25" width="1" height="1" fill="#000000" />
<rect x="41" y="25" width="1" height="1" fill="#000000" />
<rect x="8" y="26" width="1" height="1" fill="#000000" />
<rect x="9" y="26" width="1" height="1" fill="#000000" />
<rect x="14" y="26" width="1" height="1" fill="#000000" />
<rect x="15" y="26" width="1" height="1" fill="#000000" />
<rect x="24" y="26" width="1" height="1" fill="#000000" />
<rect x="25" y="26" width="1" height="1" fill="#000000" />
<rect x="34" y="26" width="1" height="1" fill="#000000" />
<rect x="35" y="26" width="1" height="1" fill="#000000" />
<rect x="40" y="26" width="1" height="1" fill="#000000" />
<rect x="41" y="26" width="1" height="1" fill="#000000" />
<rect x="8" y="27" width="1" height="1" fill="#000000" />
<rect x="9" y="27" width="1" height="1" fill="#000000" />
<rect x="14" y="27" width="1" height="1" fill="#000000" />
<rect x="15" y="27" width="1" height="1" fill="#000000" />
<rect x="24" y="27" width="1" height="1" fill="#000000" />
<rect x="25" y="27" width="1" height="1" fill="#000000" />
<rect x="34" y="27" width="1" height="1" fill="#000000" />
<rect x="35" y="27" width="1" height="1" fill="#000000" />
<rect x="40" y="27" width="1" height="1" fill="#000000" />
<rect x="41" y="27" width="1" height="1" fill="#000000" />
<rect x="8" y="28" width="1" height="1" fill="#000000" />
<rect x="9" y="28" width="1" height="1" fill="#000000" />
<rect x="40" y="28" width="1" height="1" fill="#000000" />
<rect x="41" y="28" width="1" height="1" fill="#000000" />
<rect x="8" y="29" width="1" height="1" fill="#000000" />
<rect x="9" y="29" width="1" height="1" fill="#000000" />
<rect x="40" y="29" width="1" height="1" fill="#000000" />
<rect x="41" y="29" width="1" height="1" fill="#000000" />
<rect x="8" y="30" width="1" height="1" fill="#000000" />
<rect x="9" y="30" width="1" height="1" fill="#000000" />
<rect x="12" y="30" width="1" height="1" fill="#000000" />
<rect x="13" y="30" width="1" height="1" fill="#000000" />
<rect x="14" y="30" width="1" height="1" fill="#000000" />
<rect x="15" y="30" width="1" height="1" fill="#000000" />
<rect x="16" y="30" width="1" height="1" fill="#000000" />
<rect x="17" y="30" width="1" height="1" fill="#000000" />
<rect x="22" y="30" width="1" height="1" fill="#000000" />
<rect x="23" y="30" width="1" height="1" fill="#000000" />
<rect x="24" y="30" width="1" height="1" fill="#000000" />
<rect x="25" y="30" width="1" height="1" fill="#000000" />
<rect x="26" y="30" width="1" height="1" fill="#000000" />
<rect x="27" y="30" width="1" height="1" fill="#000000" />
<rect x="32" y="30" width="1" height="1" fill="#000000" />
<rect x="33" y="30" width="1" height="1" fill="#000000" />
<rect x="34" y="30" width="1" height="1" fill="#000000" />
<rect x="35" y="30" width="1" height="1" fill="#000000" />
<rect x="36" y="30" width="1" height="1" fill="#000000" />
<rect x="37" y="30" width="1" height="1" fill="#000000" />
<rect x="40" y="30" width="1" height="1" fill="#000000" />
<rect x="41" y="30" width="1" height="1" fill="#000000" />
<rect x="8" y="31" width="1" height="1" fill="#000000" />
<rect x="9" y="31" width="1" height="1" fill="#000000" />
<rect x="12" y="31" width="1" height="1" fill="#000000" />
<rect x="13" y="31" width="1" height="1" fill="#000000" />
<rect x="14" y="31" width="1" height="1" fill="#000000" />
<rect x="15" y="31" width="1" height="1" fill="#000000" />
<rect x="16" y="31" width="1" height="1" fill="#000000" />
<rect x="17" y="31" width="1" height="1" fill="#000000" />
<rect x="22" y="31" width="1" height="1" fill="#000000" />
<rect x="23" y="31" width="1" height="1" fill="#000000" />
<rect x="24" y="31" width="1" height="1" fill="#000000" />
<rect x="25" y="31" width="1" height="1" fill="#000000" />
<rect x="26" y="31" width="1" height="1" fill="#000000" />
<rect x="27" y="31" width="1" height="1" fill="#000000" />
<rect x="32" y="31" width="1" height="1" fill="#000000" />
<rect x="33" y="31" width="1" height="1" fill="#000000" />
<rect x="34" y="31" width="1" height="1" fill="#000000" />
<rect x="35" y="31" width="1" height="1" fill="#000000" />
<rect x="36" y="31" width="1" height="1" fill="#000000" />
<rect x="37" y="31" width="1" height="1" fill="#000000" />
<rect x="40" y="31" width="1" height="1" fill="#000000" />
<rect x="41" y="31" width="1" height="1" fill="#000000" />
<rect x="8" y="32" width="1" height="1" fill="#000000" />
<rect x="9" y="32" width="1" height="1" fill="#000000" />
<rect x="10" y="32" width="1" height="1" fill="#000000" />
<rect x="11" y="32" width="1" height="1" fill="#000000" />
<rect x="12" y="32" width="1" height="1" fill="#000000" />
<rect x="13" y="32" width="1" height="1" fill="#000000" />
<rect x="14" y="32" width="1" height="1" fill="#000000" />
<rect x="15" y="32" width="1" height="1" fill="#000000" />
<rect x="16" y="32" width="1" height="1" fill="#000000" />
<rect x="17" y="32" width="1" height="1" fill="#000000" />
<rect x="18" y="32" width="1" height="1" fill="#000000" />
<rect x="19" y="32" width="1" height="1" fill="#000000" />
<rect x="20" y="32" width="1" height="1" fill="#000000" />
<rect x="21" y="32" width="1" height="1" fill="#000000" />
<rect x="22" y="32" width="1" height="1" fill="#000000" />
<rect x="23" y="32" width="1" height="1" fill="#000000" />
<rect x="24" y="32" width="1" height="1" fill="#000000" />
<rect x="25" y="32" width="1" height="1" fill="#000000" />
<rect x="26" y="32" width="1" height="1" fill="#000000" />
<rect x="27" y="32" width="1" height="1" fill="#000000" />
<rect x="28" y="32" width="1" height="1" fill="#000000" />
<rect x="29" y="32" width="1" height="1" fill="#000000" />
<rect x="30" y="32" width="1" height="1" fill="#000000" />
<rect x="31" y="32" width="1" height="1" fill="#000000" />
<rect x="32" y="32" width="1" height="1" fill="#000000" />
<rect x="33" y="32" width="1" height="1" fill="#000000" />
<rect x="34" y="32" width="1" height="1" fill="#000000" />
<rect x="35" y="32" width="1" height="1" fill="#000000" />
<rect x="36" y="32" width="1" height="1" fill="#000000" />
<rect x="37" y="32" width="1" height="1" fill="#000000" />
<rect x="38" y="32" width="1" height="1" fill="#000000" />
<rect x="39" y="32" width="1" height="1" fill="#000000" />
<rect x="40" y="32" width="1" height="1" fill="#000000" />
<rect x="41" y="32" width="1" height="1" fill="#000000" />
<rect x="8" y="33" width="1" height="1" fill="#000000" />
<rect x="9" y="33" width="1" height="1" fill="#000000" />
<rect x="10" y="33" width="1" height="1" fill="#000000" />
<rect x="11" y="33" width="1" height="1" fill="#000000" />
<rect x="12" y="33" width="1" height="1" fill="#000000" />
<rect x="13" y="33" width="1" height="1" fill="#000000" />
<rect x="14" y="33" width="1" height="1" fill="#000000" />
<rect x="15" y="33" width="1" height="1" fill="#000000" />
<rect x="16" y="33" width="1" height="1" fill="#000000" />
<rect x="17" y="33" width="1" height="1" fill="#000000" />
<rect x="18" y="33" width="1" height="1" fill="#000000" />
<rect x="19" y="33" width="1" height="1" fill="#000000" />
<rect x="20" y="33" width="1" height="1" fill="#000000" />
<rect x="21" y="33" width="1" height="1" fill="#000000" />
<rect x="22" y="33" width="1" height="1" fill="#000000" />
<rect x="23" y="33" width="1" height="1" fill="#000000" />
<rect x="24" y="33" width="1" height="1" fill="#000000" />
<rect x="25" y="33" width="1" height="1" fill="#000000" />
<rect x="26" y="33" width="1" height="1" fill="#000000" />
<rect x="27" y="33" width="1" height="1" fill="#000000" />
<rect x="28" y="33" width="1" height="1" fill="#000000" />
<rect x="29" y="33" width="1" height="1" fill="#000000" />
<rect x="30" y="33" width="1" height="1" fill="#000000" />
<rect x="31" y="33" width="1" height="1" fill="#000000" />
<rect x="32" y="33" width="1" height="1" fill="#000000" />
<rect x="33" y="33" width="1" height="1" fill="#000000" />
<rect x="34" y="33" width="1" height="1" fill="#000000" />
<rect x="35" y="33" width="1" height="1" fill="#000000" />
<rect x="36" y="33" width="1" height="1" fill="#000000" />
<rect x="37" y="33" width="1" height="1" fill="#000000" />
<rect x="38" y="33" width="1" height="1" fill="#000000" />
<rect x="39" y="33" width="1" height="1" fill="#000000" />
<rect x="40" y="33" width="1" height="1" fill="#000000" />
<rect x="41" y="33" width="1" height="1" fill="#000000" />
<rect x="10" y="34" width="1" height="1" fill="#000000" />
<rect x="11" y="34" width="1" height="1" fill="#000000" />
<rect x="12" y="34" width="1" height="1" fill="#000000" />
<rect x="13" y="34" width="1" height="1" fill="#000000" />
<rect x="16" y="34" width="1" height="1" fill="#000000" />
<rect x="17" y="34" width="1" height="1" fill="#000000" />
<rect x="18" y="34" width="1" height="1" fill="#000000" />
<rect x="19" y="34" width="1" height="1" fill="#000000" />
<rect x="20" y="34" width="1" height="1" fill="#000000" />
<rect x="21" y="34" width="1" height="1" fill="#000000" />
<rect x="22" y="34" width="1" height="1" fill="#000000" />
<rect x="23" y="34" width="1" height="1" fill="#000000" />
<rect x="26" y="34" width="1" height="1" fill="#000000" />
<rect x="27" y="34" width="1" height="1" fill="#000000" />
<rect x="28" y="34" width="1" height="1" fill="#000000" />
<rect x="29" y="34" width="1" height="1" fill="#000000" />
<rect x="30" y="34" width="1" height="1" fill="#000000" />
<rect x="31" y="34" width="1" height="1" fill="#000000" />
<rect x="32" y="34" width="1" height="1" fill="#000000" />
<rect x="33" y="34" width="1" height="1" fill="#000000" />
<rect x="36" y="34" width="1" height="1" fill="#000000" />
<rect x="37" y="34" width="1" height="1" fill="#000000" />
<rect x="38" y="34" width="1" height="1" fill="#000000" />
<rect x="39" y="34" width="1" height="1" fill="#000000" />
<rect x="10" y="35" width="1" height="1" fill="#000000" />
<rect x="11" y="35" width="1" height="1" fill="#000000" />
<rect x="12" y="35" width="1" height="1" fill="#000000" />
<rect x="13" y="35" width="1" height="1" fill="#000000" />
<rect x="16" y="35" width="1" height="1" fill="#000000" />
<rect x="17" y="35" width="1" height="1" fill="#000000" />
<rect x="18" y="35" width="1" height="1" fill="#000000" />
<rect x="19" y="35" width="1" height="1" fill="#000000" />
<rect x="20" y="35" width="1" height="1" fill="#000000" />
<rect x="21" y="35" width="1" height="1" fill="#000000" />
<rect x="22" y="35" width="1" height="1" fill="#000000" />
<rect x="23" y="35" width="1" height="1" fill="#000000" />
<rect x="26" y="35" width="1" height="1" fill="#000000" />
<rect x="27" y="35" width="1" height="1" fill="#000000" />
<rect x="28" y="35" width="1" height="1" fill="#000000" />
<rect x="29" y="35" width="1" height="1" fill="#000000" />
<rect x="30" y="35" width="1" height="1" fill="#000000" />
<rect x="31" y="35" width="1" height="1" fill="#000000" />
<rect x="32" y="35" width="1" height="1" fill="#000000" />
<rect x="33" y="35" width="1" height="1" fill="#000000" />
<rect x="36" y="35" width="1" height="1" fill="#000000" />
<rect x="37" y="35" width="1" height="1" fill="#000000" />
<rect x="38" y="35" width="1" height="1" fill="#000000" />
<rect x="39" y="35" width="1" height="1" fill="#000000" />
<rect x="8" y="36" width="1" height="1" fill="#000000" />
<rect x="9" y="36" width="1" height="1" fill="#000000" />
<rect x="40" y="36" width="1" height="1" fill="#000000" />
<rect x="41" y="36" width="1" height="1" fill="#000000" />
<rect x="8" y="37" width="1" height="1" fill="#000000" />
<rect x="9" y="37" width="1" height="1" fill="#000000" />
<rect x="40" y="37" width="1" height="1" fill="#000000" />
<rect x="41" y="37" width="1" height="1" fill="#000000" />
<rect x="8" y="38" width="1" height="1" fill="#000000" />
<rect x="9" y="38" width="1" height="1" fill="#000000" />
<rect x="40" y="38" width="1" height="1" fill="#000000" />
<rect x="41" y="38" width="1" height="1" fill="#000000" />
<rect x="8" y="39" width="1" height="1" fill="#000000" />
<rect x="9" y="39" width="1" height="1" fill="#000000" />
<rect x="40" y="39" width="1" height="1" fill="#000000" />
<rect x="41" y="39" width="1" height="1" fill="#000000" />
<rect x="8" y="40" width="1" height="1" fill="#000000" />
<rect x="9" y="40" width="1" height="1" fill="#000000" />
<rect x="10" y="40" width="1" height="1" fill="#000000" />
<rect x="11" y="40" width="1" height="1" fill="#000000" />
<rect x="12" y="40" width="1" height="1" fill="#000000" />
<rect x="13" y="40" width="1" height="1" fill="#000000" />
<rect x="14" y="40" width="1" height="1" fill="#000000" />
<rect x="15" y="40" width="1" height="1" fill="#000000" />
<rect x="16" y="40" width="1" height="1" fill="#000000" />
<rect x="17" y="40" width="1" height="1" fill="#000000" />
<rect x="18" y="40" width="1" height="1" fill="#000000" />
<rect x="19" y="40" width="1" height="1" fill="#000000" />
<rect x="20" y="40" width="1" height="1" fill="#000000" />
<rect x="21" y="40" width="1" height="1" fill="#000000" />
<rect x="22" y="40" width="1" height="1" fill="#000000" />
<rect x="23" y="40" width="1" height="1" fill="#000000" />
<rect x="24" y="40" width="1" height="1" fill="#000000" />
<rect x="25" y="40" width="1" height="1" fill="#000000" />
<rect x="26" y="40" width="1" height="1" fill="#000000" />
<rect x="27" y="40" width="1" height="1" fill="#000000" />
<rect x="28" y="40" width="1" height="1" fill="#000000" />
<rect x="29" y="40" width="1" height="1" fill="#000000" />
<rect x="30" y="40" width="1" height="1" fill="#000000" />
<rect x="31" y="40" width="1" height="1" fill="#000000" />
<rect x="32" y="40" width="1" height="1" fill="#000000" />
<rect x="33" y="40" width="1" height="1" fill="#000000" />
<rect x="34" y="40" width="1" height="1" fill="#000000" />
<rect x="35" y="40" width="1" height="1" fill="#000000" />
<rect x="36" y="40" width="1" height="1" fill="#000000" />
<rect x="37" y="40" width="1" height="1" fill="#000000" />
<rect x="38" y="40" width="1" height="1" fill="#000000" />
<rect x="39" y="40" width="1" height="1" fill="#000000" />
<rect x="40" y="40" width="1" height="1" fill="#000000" />
<rect x="41" y="40" width="1" height="1" fill="#000000" />
<rect x="8" y="41" width="1" height="1" fill="#000000" />
<rect x="9" y="41" width="1" height="1" fill="#000000" />
<rect x="10" y="41" width="1" height="1" fill="#000000" />
<rect x="11" y="41" width="1" height="1" fill="#000000" />
<rect x="12" y="41" width="1" height="1" fill="#000000" />
<rect x="13" y="41" width="1" height="1" fill="#000000" />
<rect x="14" y="41" width="1" height="1" fill="#000000" />
<rect x="15" y="41" width="1" height="1" fill="#000000" />
<rect x="16" y="41" width="1" height="1" fill="#000000" />
<rect x="17" y="41" width="1" height="1" fill="#000000" />
<rect x="18" y="41" width="1" height="1" fill="#000000" />
<rect x="19" y="41" width="1" height="1" fill="#000000" />
<rect x="20" y="41" width="1" height="1" fill="#000000" />
<rect x="21" y="41" width="1" height="1" fill="#000000" />
<rect x="22" y="41" width="1" height="1" fill="#000000" />
<rect x="23" y="41" width="1" height="1" fill="#000000" />
<rect x="24" y="41" width="1" height="1" fill="#000000" />
<rect x="25" y="41" width="1" height="1" fill="#000000" />
<rect x="26" y="41" width="1" height="1" fill="#000000" />
<rect x="27" y="41" width="1" height="1" fill="#000000" />
<rect x="28" y="41" width="1" height="1" fill="#000000" />
<rect x="29" y="41" width="1" height="1" fill="#000000" />
<rect x="30" y="41" width="1" height="1" fill="#000000" />
<rect x="31" y="41" width="1" height="1" fill="#000000" />
<rect x="32" y="41" width="1" height="1" fill="#000000" />
<rect x="33" y="41" width="1" height="1" fill="#000000" />
<rect x="34" y="41" width="1" height="1" fill="#000000" />
<rect x="35" y="41" width="1" height="1" fill="#000000" />
<rect x="36" y="41" width="1" height="1" fill="#000000" />
<rect x="37" y="41" width="1" height="1" fill="#000000" />
<rect x="38" y="41" width="1" height="1" fill="#000000" />
<rect x="39" y="41" width="1" height="1" fill="#000000" />
<rect x="40" y="41" width="1" height="1" fill="#000000" />
<rect x="41" y="41" width="1" height="1" fill="#000000" />
</svg>